<svg width="30" height="31" viewBox="0 0 30 31" fill="none" xmlns="http://www.w3.org/2000/svg">
<g filter="url(#filter0_b_231_1541)">
<g filter="url(#filter1_i_231_1541)">
<path d="M26.5363 9.02321C26.6129 8.59073 26.6529 8.14582 26.6529 7.69173C26.6529 3.44371 23.1563 0 18.843 0C15.6364 0 12.8812 1.90322 11.6784 4.62525C10.704 3.7967 9.43959 3.29646 8.05785 3.29646C4.97692 3.29646 2.47934 5.78358 2.47934 8.8516C2.47934 9.02244 2.48708 9.19148 2.50224 9.35839C1.02037 10.0732 -6.25849e-07 11.5732 -6.25849e-07 13.3079C-6.25849e-07 15.7354 1.99807 17.7032 4.46281 17.7032H25.5372C28.0019 17.7032 30 15.7354 30 13.3079C30 11.2188 28.52 9.47004 26.5363 9.02321Z" fill="url(#paint0_linear_231_1541)"/>
</g>
</g>
<path d="M8.85748 18H4.07803L2 23.465H5.74045L4.00876 30.2876L10.3121 21.3369H7.5414L8.85748 18Z" fill="url(#paint1_linear_231_1541)"/>
<path d="M17.8575 18H13.078L11 23.465H14.7404L13.0088 30.2876L19.3121 21.3369H16.5414L17.8575 18Z" fill="url(#paint2_linear_231_1541)"/>
<path d="M27.8575 18H23.078L21 23.465H24.7404L23.0088 30.2876L29.3121 21.3369H26.5414L27.8575 18Z" fill="url(#paint3_linear_231_1541)"/>
<rect x="3.50024" y="16.0308" width="22.92" height="3" rx="1.5" fill="#FFED8D" fill-opacity="0.2"/>
<defs>
<filter id="filter0_b_231_1541" x="-27" y="-27" width="84" height="71.7031" filterUnits="userSpaceOnUse" color-interpolation-filters="sRGB">
<feFlood flood-opacity="0" result="BackgroundImageFix"/>
<feGaussianBlur in="BackgroundImageFix" stdDeviation="13.5"/>
<feComposite in2="SourceAlpha" operator="in" result="effect1_backgroundBlur_231_1541"/>
<feBlend mode="normal" in="SourceGraphic" in2="effect1_backgroundBlur_231_1541" result="shape"/>
</filter>
<filter id="filter1_i_231_1541" x="0" y="0" width="30" height="27.7031" filterUnits="userSpaceOnUse" color-interpolation-filters="sRGB">
<feFlood flood-opacity="0" result="BackgroundImageFix"/>
<feBlend mode="normal" in="SourceGraphic" in2="BackgroundImageFix" result="shape"/>
<feColorMatrix in="SourceAlpha" type="matrix" values="0 0 0 0 0 0 0 0 0 0 0 0 0 0 0 0 0 0 127 0" result="hardAlpha"/>
<feOffset dy="11"/>
<feGaussianBlur stdDeviation="5"/>
<feComposite in2="hardAlpha" operator="arithmetic" k2="-1" k3="1"/>
<feColorMatrix type="matrix" values="0 0 0 0 1 0 0 0 0 1 0 0 0 0 1 0 0 0 1 0"/>
<feBlend mode="normal" in2="shape" result="effect1_innerShadow_231_1541"/>
</filter>
<linearGradient id="paint0_linear_231_1541" x1="1.90813" y1="16.1225" x2="32.0433" y2="-6.54781" gradientUnits="userSpaceOnUse">
<stop stop-color="#A8A8A8"/>
<stop offset="1" stop-color="#525151"/>
</linearGradient>
<linearGradient id="paint1_linear_231_1541" x1="5.12871" y1="29.104" x2="13.0025" y2="17.9906" gradientUnits="userSpaceOnUse">
<stop stop-color="#FF9900"/>
<stop offset="1" stop-color="#FFEE94"/>
</linearGradient>
<linearGradient id="paint2_linear_231_1541" x1="14.1287" y1="29.104" x2="22.0025" y2="17.9906" gradientUnits="userSpaceOnUse">
<stop stop-color="#FF9900"/>
<stop offset="1" stop-color="#FFEE94"/>
</linearGradient>
<linearGradient id="paint3_linear_231_1541" x1="24.1287" y1="29.104" x2="32.0025" y2="17.9906" gradientUnits="userSpaceOnUse">
<stop stop-color="#FF9900"/>
<stop offset="1" stop-color="#FFEE94"/>
</linearGradient>
</defs>
</svg>
