<svg width="16" height="16" viewBox="0 0 16 16" fill="none" xmlns="http://www.w3.org/2000/svg">
<path d="M5.03408 11.673C4.96543 11.9292 5.00137 12.2022 5.13398 12.4319C5.26659 12.6615 5.485 12.8291 5.74118 12.8978C5.99736 12.9664 6.27032 12.9305 6.5 12.7979C6.72969 12.6653 6.89728 12.4469 6.96593 12.1907C7.09534 11.7077 6.79049 10.6994 6.51764 10C5.93163 10.4693 5.16349 11.1901 5.03408 11.673Z" fill="#00BCFF" fill-opacity="0.9"/>
<path d="M0.904682 11.7241C0.836039 11.9803 0.871974 12.2533 1.00458 12.483C1.13719 12.7127 1.35561 12.8803 1.61179 12.9489C1.86797 13.0175 2.14092 12.9816 2.37061 12.849C2.60029 12.7164 2.76789 12.498 2.83653 12.2418C2.96594 11.7588 2.66109 10.7506 2.38825 10.0511C1.80223 10.5204 1.03409 11.2412 0.904682 11.7241Z" fill="#00BCFF" fill-opacity="0.9"/>
<path d="M9.13398 12.4319C9.00137 12.2022 8.96543 11.9292 9.03408 11.673C9.16349 11.1901 9.93163 10.4693 10.5176 10C10.7905 10.6994 11.0953 11.7077 10.9659 12.1907C10.8973 12.4469 10.7297 12.6653 10.5 12.7979C10.2703 12.9305 9.99736 12.9664 9.74118 12.8978C9.485 12.8291 9.26659 12.6615 9.13398 12.4319Z" fill="#00BCFF" fill-opacity="0.9"/>
<path d="M13.0341 11.673C12.9654 11.9292 13.0014 12.2022 13.134 12.4319C13.2666 12.6615 13.485 12.8291 13.7412 12.8978C13.9974 12.9664 14.2703 12.9305 14.5 12.7979C14.7297 12.6653 14.8973 12.4469 14.9659 12.1907C15.0953 11.7077 14.7905 10.6994 14.5176 10C13.9316 10.4693 13.1635 11.1901 13.0341 11.673Z" fill="#00BCFF" fill-opacity="0.9"/>
<path d="M11.134 15.4319C11.0014 15.2022 10.9654 14.9292 11.0341 14.673C11.1635 14.1901 11.9316 13.4693 12.5176 13C12.7905 13.6994 13.0953 14.7077 12.9659 15.1907C12.8973 15.4469 12.7297 15.6653 12.5 15.7979C12.2703 15.9305 11.9974 15.9664 11.7412 15.8978C11.485 15.8291 11.2666 15.6615 11.134 15.4319Z" fill="#00BCFF" fill-opacity="0.9"/>
<path d="M3.03408 14.673C2.96543 14.9292 3.00137 15.2022 3.13398 15.4319C3.26659 15.6615 3.485 15.8291 3.74118 15.8978C3.99736 15.9664 4.27032 15.9305 4.5 15.7979C4.72969 15.6653 4.89728 15.4469 4.96593 15.1907C5.09534 14.7077 4.79049 13.6994 4.51764 13C3.93163 13.4693 3.16349 14.1901 3.03408 14.673Z" fill="#00BCFF" fill-opacity="0.9"/>
<g filter="url(#filter0_b_231_1083)">
<g filter="url(#filter1_i_231_1083)">
<path d="M14.1527 4.58725C14.1936 4.36738 14.2149 4.1412 14.2149 3.91034C14.2149 1.75072 12.35 0 10.0496 0C8.33941 0 6.86996 0.967565 6.22848 2.3514C5.7088 1.93018 5.03445 1.67586 4.29752 1.67586C2.65436 1.67586 1.32231 2.94027 1.32231 4.5C1.32231 4.58685 1.32644 4.67279 1.33453 4.75764C0.544198 5.12107 -1.22935e-07 5.88363 -1.22935e-07 6.76552C-1.22935e-07 7.99959 1.06564 9 2.38017 9H13.6198C14.9344 9 16 7.99959 16 6.76552C16 5.70343 15.2107 4.8144 14.1527 4.58725Z" fill="url(#paint0_linear_231_1083)"/>
</g>
</g>
<defs>
<filter id="filter0_b_231_1083" x="-27" y="-27" width="70" height="63" filterUnits="userSpaceOnUse" color-interpolation-filters="sRGB">
<feFlood flood-opacity="0" result="BackgroundImageFix"/>
<feGaussianBlur in="BackgroundImageFix" stdDeviation="13.5"/>
<feComposite in2="SourceAlpha" operator="in" result="effect1_backgroundBlur_231_1083"/>
<feBlend mode="normal" in="SourceGraphic" in2="effect1_backgroundBlur_231_1083" result="shape"/>
</filter>
<filter id="filter1_i_231_1083" x="0" y="0" width="16" height="20" filterUnits="userSpaceOnUse" color-interpolation-filters="sRGB">
<feFlood flood-opacity="0" result="BackgroundImageFix"/>
<feBlend mode="normal" in="SourceGraphic" in2="BackgroundImageFix" result="shape"/>
<feColorMatrix in="SourceAlpha" type="matrix" values="0 0 0 0 0 0 0 0 0 0 0 0 0 0 0 0 0 0 127 0" result="hardAlpha"/>
<feOffset dy="11"/>
<feGaussianBlur stdDeviation="6.5"/>
<feComposite in2="hardAlpha" operator="arithmetic" k2="-1" k3="1"/>
<feColorMatrix type="matrix" values="0 0 0 0 1 0 0 0 0 1 0 0 0 0 1 0 0 0 1 0"/>
<feBlend mode="normal" in2="shape" result="effect1_innerShadow_231_1083"/>
</filter>
<linearGradient id="paint0_linear_231_1083" x1="1.01767" y1="8.19643" x2="16.5261" y2="-4.04299" gradientUnits="userSpaceOnUse">
<stop stop-color="#B9ACAC"/>
<stop offset="1" stop-color="#4F4F4F" stop-opacity="0.87"/>
</linearGradient>
</defs>
</svg>
