<svg width="16" height="16" viewBox="0 0 16 16" fill="none" xmlns="http://www.w3.org/2000/svg">
<path d="M7.66751 8.75498L8.2 8.39855V2.5C8.2 1.78203 8.78203 1.2 9.5 1.2C10.218 1.2 10.8 1.78203 10.8 2.5V3.4C10.8 3.73137 11.0686 4 11.4 4C11.7314 4 12 3.73137 12 3.4V2.5C12 1.11929 10.8807 0 9.5 0C8.11929 0 7 1.11929 7 2.5V7.75777C5.79401 8.56504 5 9.93979 5 11.5C5 13.9853 7.01472 16 9.5 16C11.9853 16 14 13.9853 14 11.5C14 9.93979 13.206 8.56504 12 7.75777V6.6C12 6.26863 11.7314 6 11.4 6C11.0686 6 10.8 6.26863 10.8 6.6V8.39855L11.3325 8.75498C12.2199 9.349 12.8 10.357 12.8 11.5C12.8 13.3225 11.3225 14.8 9.5 14.8C7.67746 14.8 6.2 13.3225 6.2 11.5C6.2 10.357 6.7801 9.349 7.66751 8.75498Z" fill="#00BCFF"/>
<path d="M9.5 7C9.22386 7 9 7.22386 9 7.5V9.56301C8.13739 9.78503 7.5 10.5681 7.5 11.5C7.5 12.6046 8.39543 13.5 9.5 13.5C10.6046 13.5 11.5 12.6046 11.5 11.5C11.5 10.5681 10.8626 9.78503 10 9.56301V7.5C10 7.22386 9.77614 7 9.5 7Z" fill="#00BCFF"/>
<path d="M11.5 4.99991C11.5 4.66854 11.6791 4.39991 11.9 4.39991H15.1C15.3209 4.39991 15.5 4.66854 15.5 4.99991C15.5 5.33128 15.3209 5.59991 15.1 5.59991H11.9C11.6791 5.59991 11.5 5.33128 11.5 4.99991Z" fill="#00BCFF"/>
<path d="M5.49338 2.40369L3.13125 1.03569C3.09139 1.01232 3.04602 1 2.99981 1C2.95361 1 2.90824 1.01232 2.86838 1.03569L0.506625 2.40369C0.466625 2.42691 0.433418 2.46023 0.410321 2.5003C0.387224 2.54038 0.375045 2.58581 0.375 2.63206V5.36806C0.375 5.46219 0.42525 5.54919 0.506625 5.59644L2.86838 6.96444C2.90817 6.988 2.95357 7.00043 2.99981 7.00043C3.04606 7.00043 3.09146 6.988 3.13125 6.96444L5.493 5.59644C5.53312 5.57332 5.56644 5.54004 5.58962 5.49995C5.61279 5.45986 5.62499 5.41437 5.625 5.36806V2.63206C5.62496 2.58581 5.61278 2.54038 5.58968 2.5003C5.56658 2.46023 5.53338 2.42691 5.49338 2.40369V2.40369ZM5.09888 5.21581L3 6.43156L0.901125 5.21581V2.78469L3 1.56856L5.09888 2.78431V5.21581V5.21581Z" fill="#00BCFF"/>
<path d="M2.29289 5.20711C2.10536 5.01957 2 4.76522 2 4.5C2 4 2.55542 3.10499 3 2.5C3.44458 3.10499 4 4 4 4.5C4 4.76522 3.89464 5.01957 3.70711 5.20711C3.51957 5.39464 3.26522 5.5 3 5.5C2.73478 5.5 2.48043 5.39464 2.29289 5.20711Z" fill="#00BCFF"/>
</svg>
