<svg width="30" height="30" viewBox="0 0 30 30" fill="none" xmlns="http://www.w3.org/2000/svg">
<path d="M2.27531 1.70442C2.11634 1.54501 1.85861 1.54501 1.69964 1.70442C1.54068 1.86383 1.54068 2.12229 1.69964 2.2817L2.44392 3.02807H1.69964C1.47483 3.02807 1.29259 3.21083 1.29259 3.43627C1.29259 3.66171 1.47483 3.84447 1.69965 3.84447H3.25803L4.29013 4.87948C4.29812 4.88748 4.30635 4.89509 4.3148 4.90229C3.96645 5.39184 3.81935 5.9811 3.8735 6.55487C3.86249 6.55687 3.85147 6.55935 3.84048 6.5623L2.4306 6.94114L1.081 6.15976C0.886303 6.04704 0.637352 6.11393 0.524946 6.30917C0.412541 6.50441 0.479247 6.75406 0.673939 6.86678L1.3185 7.23996L0.301803 7.51315C0.0846526 7.5715 -0.0442142 7.79533 0.0139711 8.01309C0.0721565 8.23086 0.29536 8.36008 0.512511 8.30173L1.52921 8.02855L1.15707 8.67492C1.04466 8.87016 1.11137 9.11981 1.30606 9.23253C1.50075 9.34525 1.74971 9.27836 1.86211 9.08312L2.6413 7.72972L4.05118 7.35088C4.06198 7.34798 4.07256 7.34467 4.08291 7.34097C4.20069 7.59954 4.36569 7.84177 4.57791 8.05459C4.79013 8.2674 5.03169 8.43287 5.28953 8.55098C5.28584 8.56135 5.28255 8.57195 5.27965 8.58277L4.90188 9.99662L3.55228 10.778C3.35758 10.8907 3.29088 11.1404 3.40328 11.3356C3.51569 11.5309 3.76464 11.5977 3.95933 11.485L4.60389 11.1118L4.33147 12.1314C4.27328 12.3492 4.40215 12.573 4.6193 12.6313C4.83645 12.6897 5.05966 12.5605 5.11784 12.3427L5.39026 11.3231L5.7624 11.9695C5.8748 12.1648 6.12376 12.2316 6.31845 12.1189C6.51314 12.0062 6.57985 11.7566 6.46744 11.5613L5.68825 10.2079L6.06602 8.79407C6.06897 8.78305 6.07144 8.77201 6.07343 8.76098C6.64559 8.81528 7.23319 8.66777 7.72137 8.31843C7.72855 8.32691 7.73613 8.33517 7.74412 8.34317L8.77622 9.37818V10.9409C8.77622 11.1664 8.95847 11.3491 9.18328 11.3491C9.40809 11.3491 9.59033 11.1664 9.59033 10.9409V10.1946L10.3346 10.9409C10.4936 11.1004 10.7513 11.1004 10.9103 10.9409C11.0692 10.7815 11.0692 10.5231 10.9103 10.3637L10.166 9.6173L10.9103 9.6173C11.1351 9.6173 11.3173 9.43454 11.3173 9.2091C11.3173 8.98365 11.1351 8.8009 10.9103 8.8009H9.35188L8.31978 7.76589C8.31179 7.75788 8.30355 7.75027 8.29509 7.74307C8.6434 7.25351 8.79047 6.66427 8.73631 6.09053C8.74734 6.08852 8.75839 6.08605 8.76941 6.08308L10.1793 5.70424L11.5289 6.48563C11.7236 6.59835 11.9725 6.53145 12.0849 6.33621C12.1973 6.14098 12.1306 5.89132 11.936 5.7786L11.2914 5.40542L12.3081 5.13223C12.5252 5.07388 12.6541 4.85005 12.5959 4.63229C12.5377 4.41453 12.3145 4.2853 12.0974 4.34365L11.0807 4.61684L11.4528 3.97047C11.5652 3.77523 11.4985 3.52558 11.3038 3.41285C11.1091 3.30013 10.8602 3.36703 10.7478 3.56227L9.96859 4.91566L8.55871 5.2945C8.54787 5.29741 8.53726 5.30073 8.52687 5.30445C8.40909 5.04591 8.2441 4.80369 8.0319 4.59089C7.81969 4.37809 7.57816 4.21263 7.32034 4.09452C7.32405 4.0841 7.32737 4.07345 7.33027 4.06258L7.70805 2.64873L9.05765 1.86735C9.25234 1.75463 9.31905 1.50497 9.20664 1.30973C9.09424 1.1145 8.84528 1.0476 8.65059 1.16032L8.00603 1.53351L8.27846 0.513952C8.33664 0.296191 8.20778 0.0723593 7.99062 0.0140104C7.77347 -0.0443386 7.55027 0.084891 7.49208 0.302652L7.21966 1.32221L6.84753 0.675834C6.73512 0.480595 6.48617 0.413701 6.29148 0.526422C6.09679 0.639144 6.03008 0.888796 6.14248 1.08403L6.92168 2.43743L6.5439 3.85127C6.54094 3.86234 6.53847 3.87342 6.53647 3.8845C5.96433 3.83018 5.37674 3.97766 4.88856 4.32695C4.88137 4.31847 4.87379 4.3102 4.8658 4.30219L3.83369 3.26719L3.83369 1.70442C3.83369 1.47898 3.65145 1.29622 3.42664 1.29622C3.20183 1.29622 3.01958 1.47898 3.01958 1.70442V2.45079L2.27531 1.70442Z" fill="#00BCFF" fill-opacity="0.85"/>
<path d="M12.6405 11.6645C12.3735 11.3973 11.9406 11.3973 11.6736 11.6645C11.4065 11.9316 11.4065 12.3648 11.6736 12.6319L12.9237 13.8827H11.6736C11.2959 13.8827 10.9898 14.189 10.9898 14.5668C10.9898 14.9446 11.2959 15.2509 11.6736 15.2509H14.2912L16.0249 16.9854C16.0383 16.9989 16.0521 17.0116 16.0663 17.0237C15.4812 17.8441 15.2341 18.8316 15.3251 19.7932C15.3066 19.7965 15.2881 19.8007 15.2696 19.8056L12.9014 20.4405L10.6344 19.131C10.3074 18.9421 9.88919 19.0542 9.70038 19.3814C9.51156 19.7086 9.62361 20.127 9.95064 20.3159L11.0333 20.9413L9.32555 21.3991C8.9608 21.4969 8.74434 21.872 8.84207 22.2369C8.93981 22.6019 9.31473 22.8185 9.67949 22.7207L11.3873 22.2628L10.7622 23.3461C10.5734 23.6733 10.6854 24.0916 11.0124 24.2806C11.3395 24.4695 11.7577 24.3574 11.9465 24.0302L13.2553 21.7621L15.6235 21.1272C15.6417 21.1223 15.6594 21.1168 15.6768 21.1106C15.8747 21.5439 16.1518 21.9498 16.5083 22.3065C16.8648 22.6631 17.2705 22.9404 17.7036 23.1384C17.6974 23.1557 17.6919 23.1735 17.687 23.1917L17.0525 25.5611L14.7855 26.8705C14.4585 27.0595 14.3464 27.4778 14.5352 27.805C14.724 28.1322 15.1422 28.2443 15.4692 28.0554L16.5519 27.43L16.0943 29.1387C15.9966 29.5036 16.2131 29.8787 16.5778 29.9765C16.9426 30.0743 17.3175 29.8577 17.4152 29.4928L17.8728 27.7841L18.4979 28.8674C18.6867 29.1946 19.1049 29.3067 19.4319 29.1178C19.759 28.9289 19.871 28.5105 19.6822 28.1833L18.3734 25.9152L19.0079 23.5458C19.0129 23.5273 19.017 23.5088 19.0204 23.4903C19.9815 23.5813 20.9685 23.3341 21.7885 22.7487C21.8006 22.7629 21.8133 22.7767 21.8267 22.7901L23.5604 24.5246L23.5604 27.1436C23.5604 27.5214 23.8665 27.8277 24.2441 27.8277C24.6217 27.8277 24.9279 27.5214 24.9279 27.1436V25.8928L26.178 27.1436C26.4451 27.4108 26.878 27.4108 27.145 27.1436C27.412 26.8765 27.412 26.4433 27.145 26.1762L25.8948 24.9254L27.145 24.9254C27.5226 24.9254 27.8288 24.6191 27.8288 24.2413C27.8288 23.8635 27.5226 23.5572 27.145 23.5572L24.5273 23.5572L22.7937 21.8227C22.7802 21.8092 22.7664 21.7965 22.7522 21.7844C23.3373 20.964 23.5843 19.9765 23.4933 19.015C23.5119 19.0116 23.5304 19.0075 23.5489 19.0025L25.9172 18.3676L28.1841 19.6771C28.5112 19.866 28.9293 19.7539 29.1182 19.4267C29.307 19.0995 29.1949 18.6812 28.8679 18.4922L27.7852 17.8668L29.493 17.409C29.8577 17.3112 30.0742 16.9361 29.9765 16.5712C29.8787 16.2062 29.5038 15.9897 29.139 16.0875L27.4313 16.5453L28.0564 15.4621C28.2452 15.1349 28.1331 14.7165 27.8061 14.5276C27.479 14.3387 27.0609 14.4508 26.8721 14.778L25.5632 17.0461L23.195 17.681C23.1768 17.6858 23.159 17.6914 23.1415 17.6976C22.9437 17.2643 22.6665 16.8584 22.3101 16.5018C21.9536 16.1452 21.5479 15.8679 21.1149 15.67C21.1211 15.6525 21.1267 15.6346 21.1315 15.6164L21.7661 13.247L24.0331 11.9375C24.3601 11.7486 24.4722 11.3302 24.2834 11.003C24.0945 10.6758 23.6764 10.5637 23.3493 10.7526L22.2666 11.378L22.7242 9.66942C22.822 9.30448 22.6055 8.92937 22.2408 8.83159C21.876 8.7338 21.5011 8.95037 21.4033 9.31531L20.9457 11.0239L20.3207 9.94071C20.1318 9.61352 19.7137 9.50141 19.3866 9.69032C19.0596 9.87922 18.9476 10.2976 19.1364 10.6248L20.4452 12.8929L19.8106 15.2623C19.8057 15.2809 19.8015 15.2994 19.7982 15.318C18.8371 15.227 17.8501 15.4741 17.0301 16.0595C17.018 16.0453 17.0053 16.0314 16.9919 16.018L15.2582 14.2835L15.2582 11.6645C15.2582 11.2867 14.9521 10.9804 14.5745 10.9804C14.1968 10.9804 13.8907 11.2867 13.8907 11.6645V12.9153L12.6405 11.6645Z" fill="#00BCFF" fill-opacity="0.75"/>
</svg>
