<svg width="16" height="16" viewBox="0 0 16 16" fill="none" xmlns="http://www.w3.org/2000/svg">
<path d="M0.146484 11.1465L3.14648 8.14648L3.85359 8.85359L0.853591 11.8536L0.146484 11.1465ZM0.146484 15.1465L4.64648 10.6465L5.35359 11.3536L0.853591 15.8536L0.146484 15.1465ZM4.14648 15.1465L7.14648 12.1465L7.85359 12.8536L4.85359 15.8536L4.14648 15.1465Z" fill="#00BCFF" fill-opacity="0.75"/>
<path d="M6.28778 1.7572C6.14133 1.61075 5.90389 1.61075 5.75745 1.7572C5.611 1.90365 5.611 2.14108 5.75745 2.28753L6.44311 2.97319H5.75745C5.55034 2.97319 5.38245 3.14108 5.38245 3.34819C5.38245 3.5553 5.55034 3.72319 5.75745 3.72319H7.19311L8.14393 4.67402C8.15129 4.68137 8.15887 4.68835 8.16666 4.69497C7.84574 5.14471 7.71022 5.68604 7.76011 6.21314C7.74997 6.21498 7.73982 6.21725 7.72969 6.21997L6.43083 6.568L5.18752 5.85017C5.00816 5.74661 4.77881 5.80807 4.67526 5.98742C4.5717 6.16678 4.63316 6.39613 4.81252 6.49968L5.40632 6.84251L4.46969 7.09348C4.26964 7.14709 4.15092 7.35271 4.20452 7.55276C4.25812 7.75281 4.46375 7.87153 4.6638 7.81793L5.60043 7.56696L5.2576 8.16076C5.15405 8.34012 5.2155 8.56946 5.39486 8.67302C5.57422 8.77657 5.80357 8.71512 5.90712 8.53576L6.62495 7.29244L7.9238 6.94441C7.93375 6.94175 7.9435 6.93871 7.95303 6.93531C8.06154 7.17284 8.21354 7.39537 8.40905 7.59088C8.60456 7.78639 8.82709 7.93839 9.06463 8.0469C9.06123 8.05643 9.05819 8.06617 9.05553 8.07611L8.7075 9.37496L7.46418 10.0928C7.28482 10.1963 7.22337 10.4257 7.32692 10.605C7.43048 10.7844 7.65982 10.8459 7.83918 10.7423L8.43298 10.3995L8.18201 11.3361C8.12841 11.5362 8.24713 11.7418 8.44718 11.7954C8.64723 11.849 8.85285 11.7303 8.90646 11.5302L9.15743 10.5936L9.50026 11.1874C9.60381 11.3668 9.83316 11.4282 10.0125 11.3247C10.1919 11.2211 10.2533 10.9918 10.1498 10.8124L9.43195 9.56907L9.77997 8.27022C9.78268 8.2601 9.78496 8.24996 9.7868 8.23982C10.3139 8.28971 10.8552 8.15419 11.305 7.83327C11.3116 7.84106 11.3186 7.84864 11.3259 7.856L12.2767 8.80682L12.2767 10.2425C12.2767 10.4496 12.4446 10.6175 12.6517 10.6175C12.8588 10.6175 13.0267 10.4496 13.0267 10.2425V9.55682L13.7124 10.2425C13.8588 10.3889 14.0963 10.3889 14.2427 10.2425C14.3892 10.096 14.3892 9.8586 14.2427 9.71215L13.5571 9.02649L14.2427 9.02649C14.4498 9.02649 14.6177 8.8586 14.6177 8.65149C14.6177 8.44438 14.4498 8.27649 14.2427 8.27649L12.8071 8.27649L11.8562 7.32567C11.8489 7.31831 11.8413 7.31132 11.8335 7.3047C12.1544 6.85496 12.2899 6.31364 12.24 5.78657C12.2501 5.78473 12.2603 5.78245 12.2705 5.77973L13.5693 5.4317L14.8126 6.14953C14.992 6.25308 15.2213 6.19163 15.3249 6.01227C15.4284 5.83291 15.367 5.60357 15.1876 5.50001L14.5938 5.15718L15.5305 4.90621C15.7305 4.85261 15.8492 4.64698 15.7956 4.44693C15.742 4.24688 15.5364 4.12817 15.3364 4.18177L14.3997 4.43274L14.7426 3.83894C14.8461 3.65958 14.7847 3.43023 14.6053 3.32668C14.4259 3.22313 14.1966 3.28458 14.093 3.46394L13.3752 4.70726L12.0764 5.05528C12.0664 5.05796 12.0566 5.06101 12.047 5.06442C11.9385 4.82691 11.7865 4.60439 11.591 4.4089C11.3955 4.21341 11.173 4.06141 10.9355 3.95291C10.9389 3.94333 10.942 3.93355 10.9447 3.92356L11.2927 2.6247L12.536 1.90687C12.7154 1.80332 12.7768 1.57397 12.6733 1.39462C12.5697 1.21526 12.3404 1.1538 12.161 1.25736L11.5672 1.60019L11.8182 0.663557C11.8718 0.463507 11.7531 0.25788 11.553 0.204277C11.353 0.150674 11.1473 0.269393 11.0937 0.469442L10.8428 1.40607L10.4999 0.812272C10.3964 0.632912 10.167 0.571459 9.98767 0.675013C9.80831 0.778566 9.74686 1.00791 9.85041 1.18727L10.5682 2.43059L10.2202 3.72944C10.2175 3.73961 10.2152 3.74979 10.2134 3.75996C9.68629 3.71006 9.14497 3.84555 8.69523 4.16643C8.68861 4.15863 8.68162 4.15105 8.67426 4.14369L7.72344 3.19286L7.72344 1.7572C7.72344 1.55009 7.55554 1.3822 7.34844 1.3822C7.14133 1.3822 6.97344 1.55009 6.97344 1.7572V2.44286L6.28778 1.7572Z" fill="#00BCFF" fill-opacity="0.75"/>
</svg>
