<svg width="16" height="16" viewBox="0 0 16 16" fill="none" xmlns="http://www.w3.org/2000/svg">
<path d="M0.146484 11.1465L3.14648 8.14648L3.85359 8.85359L0.853591 11.8536L0.146484 11.1465ZM0.146484 15.1465L4.64648 10.6465L5.35359 11.3536L0.853591 15.8536L0.146484 15.1465ZM4.14648 15.1465L7.14648 12.1465L7.85359 12.8536L4.85359 15.8536L4.14648 15.1465Z" fill="#00BCFF" fill-opacity="0.75"/>
<path d="M6.28776 1.75744C6.14131 1.611 5.90387 1.611 5.75743 1.75744C5.61098 1.90389 5.61098 2.14133 5.75743 2.28777L6.44309 2.97343H5.75743C5.55032 2.97343 5.38243 3.14133 5.38243 3.34843C5.38243 3.55554 5.55032 3.72343 5.75743 3.72343H7.19309L8.14391 4.67426C8.15127 4.68161 8.15885 4.6886 8.16664 4.69521C7.84572 5.14496 7.7102 5.68629 7.76009 6.21338C7.74994 6.21523 7.7398 6.2175 7.72967 6.22021L6.43081 6.56824L5.1875 5.85041C5.00814 5.74686 4.77879 5.80831 4.67524 5.98767C4.57168 6.16703 4.63314 6.39638 4.8125 6.49993L5.4063 6.84276L4.46967 7.09373C4.26962 7.14733 4.1509 7.35296 4.2045 7.55301C4.2581 7.75306 4.46373 7.87178 4.66378 7.81817L5.60041 7.5672L5.25758 8.161C5.15403 8.34036 5.21548 8.56971 5.39484 8.67326C5.5742 8.77681 5.80354 8.71536 5.9071 8.536L6.62493 7.29268L7.92378 6.94466C7.93373 6.94199 7.94348 6.93895 7.95301 6.93555C8.06152 7.17309 8.21352 7.39562 8.40903 7.59112C8.60454 7.78663 8.82707 7.93864 9.06461 8.04714C9.06121 8.05667 9.05817 8.06641 9.05551 8.07635L8.70748 9.3752L7.46416 10.093C7.2848 10.1966 7.22335 10.4259 7.3269 10.6053C7.43046 10.7847 7.6598 10.8461 7.83916 10.7426L8.43296 10.3997L8.18199 11.3364C8.12839 11.5364 8.24711 11.742 8.44716 11.7956C8.64721 11.8492 8.85283 11.7305 8.90644 11.5305L9.15741 10.5938L9.50024 11.1876C9.60379 11.367 9.83314 11.4284 10.0125 11.3249C10.1919 11.2213 10.2533 10.992 10.1498 10.8126L9.43193 9.56932L9.77995 8.27047C9.78266 8.26034 9.78494 8.2502 9.78678 8.24007C10.3139 8.28995 10.8552 8.15443 11.3049 7.83351C11.3116 7.8413 11.3185 7.84889 11.3259 7.85624L12.2767 8.80706L12.2767 10.2427C12.2767 10.4498 12.4446 10.6177 12.6517 10.6177C12.8588 10.6177 13.0267 10.4498 13.0267 10.2427V9.55707L13.7124 10.2427C13.8588 10.3892 14.0963 10.3892 14.2427 10.2427C14.3892 10.0963 14.3892 9.85884 14.2427 9.71239L13.557 9.02674H14.2427C14.4498 9.02673 14.6177 8.85884 14.6177 8.65174C14.6177 8.44463 14.4498 8.27673 14.2427 8.27673L12.807 8.27674L11.8562 7.32591C11.8489 7.31855 11.8413 7.31156 11.8335 7.30494C12.1544 6.8552 12.2898 6.31389 12.2399 5.78682C12.2501 5.78497 12.2603 5.78269 12.2704 5.77997L13.5693 5.43194L14.8126 6.14978C14.992 6.25333 15.2213 6.19188 15.3249 6.01252C15.4284 5.83316 15.367 5.60381 15.1876 5.50026L14.5938 5.15743L15.5304 4.90646C15.7305 4.85285 15.8492 4.64723 15.7956 4.44718C15.742 4.24713 15.5364 4.12841 15.3363 4.18201L14.3997 4.43298L14.7425 3.83918C14.8461 3.65982 14.7846 3.43048 14.6053 3.32692C14.4259 3.22337 14.1966 3.28482 14.093 3.46418L13.3752 4.7075L12.0763 5.05553C12.0664 5.0582 12.0566 5.06126 12.047 5.06467C11.9385 4.82715 11.7865 4.60464 11.591 4.40914C11.3955 4.21365 11.173 4.06165 10.9355 3.95315C10.9389 3.94358 10.942 3.93379 10.9446 3.9238L11.2927 2.62495L12.536 1.90712C12.7153 1.80357 12.7768 1.57422 12.6732 1.39486C12.5697 1.2155 12.3403 1.15405 12.161 1.2576L11.5672 1.60043L11.8182 0.663801C11.8718 0.463751 11.753 0.258124 11.553 0.204521C11.3529 0.150918 11.1473 0.269637 11.0937 0.469686L10.8427 1.40632L10.4999 0.812516C10.3964 0.633156 10.167 0.571703 9.98765 0.675257C9.80829 0.77881 9.74684 1.00816 9.85039 1.18752L10.5682 2.43083L10.2202 3.72969C10.2175 3.73985 10.2152 3.75003 10.2133 3.76021C9.68627 3.71031 9.14495 3.8458 8.69521 4.16668C8.68859 4.15888 8.6816 4.15129 8.67424 4.14393L7.72342 3.1931L7.72342 1.75744C7.72342 1.55034 7.55552 1.38244 7.34842 1.38244C7.14131 1.38244 6.97342 1.55034 6.97342 1.75744V2.4431L6.28776 1.75744Z" fill="#00BCFF" fill-opacity="0.75"/>
<path d="M1.15102 4.35011C1.15102 4.15681 1.30772 4.00011 1.50102 4.00011C1.69432 4.00011 1.85102 4.15681 1.85102 4.35011V4.8939L2.32195 4.62201C2.48935 4.52536 2.70341 4.58271 2.80005 4.75011C2.89671 4.91752 2.83935 5.13158 2.67195 5.22822L2.20102 5.50011L2.67195 5.772C2.83935 5.86865 2.89671 6.08271 2.80006 6.25011C2.70341 6.41752 2.48935 6.47487 2.32195 6.37822L1.85102 6.10633V6.65011C1.85102 6.84341 1.69432 7.00011 1.50102 7.00011C1.30772 7.00011 1.15102 6.84341 1.15102 6.65011V6.10634L0.680088 6.37823C0.512686 6.47487 0.29863 6.41752 0.201979 6.25011C0.105329 6.08271 0.162685 5.86865 0.330087 5.772L0.801016 5.50011L0.330087 5.22822C0.162685 5.13158 0.105329 4.91752 0.201979 4.75011C0.29863 4.58271 0.512686 4.52535 0.680088 4.622L1.15102 4.89389V4.35011Z" fill="#00BCFF" fill-opacity="0.75"/>
<path d="M10.501 13.0001C10.3077 13.0001 10.151 13.1568 10.151 13.3501V13.8939L9.68009 13.622C9.51269 13.5254 9.29863 13.5827 9.20198 13.7501C9.10533 13.9175 9.16269 14.1316 9.33009 14.2282L9.80102 14.5001L9.33009 14.772C9.16269 14.8687 9.10533 15.0827 9.20198 15.2501C9.29863 15.4175 9.51269 15.4749 9.68009 15.3782L10.151 15.1063V15.6501C10.151 15.8434 10.3077 16.0001 10.501 16.0001C10.6943 16.0001 10.851 15.8434 10.851 15.6501V15.1063L11.3219 15.3782C11.4893 15.4749 11.7034 15.4175 11.8001 15.2501C11.8967 15.0827 11.8393 14.8687 11.6719 14.772L11.201 14.5001L11.6719 14.2282C11.8393 14.1316 11.8967 13.9175 11.8001 13.7501C11.7034 13.5827 11.4893 13.5254 11.3219 13.622L10.851 13.8939V13.3501C10.851 13.1568 10.6943 13.0001 10.501 13.0001Z" fill="#00BCFF" fill-opacity="0.75"/>
</svg>
