<svg width="30" height="30" viewBox="0 0 30 30" fill="none" xmlns="http://www.w3.org/2000/svg">
<path d="M2.07053 1.4658C1.92587 1.32871 1.69133 1.32871 1.54668 1.4658C1.40202 1.6029 1.40202 1.82517 1.54668 1.96227L2.22396 2.60414H1.54668C1.3421 2.60414 1.17626 2.76131 1.17626 2.95519C1.17626 3.14907 1.3421 3.30625 1.54668 3.30624H2.9648L3.90402 4.19635C3.91128 4.20323 3.91877 4.20977 3.92647 4.21597C3.60947 4.63699 3.4756 5.14375 3.52488 5.63719C3.51486 5.63891 3.50484 5.64104 3.49483 5.64358L2.21184 5.96938L0.983705 5.29739C0.806536 5.20045 0.57999 5.25798 0.477701 5.42589C0.375412 5.59379 0.436115 5.80849 0.613284 5.90543L1.19983 6.22637L0.274641 6.46131C0.0770339 6.51149 -0.0402349 6.70399 0.0127137 6.89126C0.0656624 7.07854 0.268778 7.18967 0.466385 7.13949L1.39158 6.90455L1.05293 7.46043C0.950644 7.62834 1.01135 7.84304 1.18852 7.93998C1.36569 8.03692 1.59223 7.97939 1.69452 7.81148L2.40358 6.64756L3.68658 6.32176C3.6964 6.31927 3.70603 6.31642 3.71545 6.31324C3.82263 6.5356 3.97278 6.74392 4.1659 6.92694C4.35902 7.10997 4.57884 7.25226 4.81347 7.35384C4.81012 7.36276 4.80711 7.37188 4.80448 7.38119L4.46071 8.59709L3.23257 9.26908C3.0554 9.36602 2.9947 9.58072 3.09699 9.74863C3.19928 9.91653 3.42582 9.97406 3.60299 9.87712L4.18954 9.55619L3.94164 10.433C3.88869 10.6203 4.00596 10.8128 4.20356 10.863C4.40117 10.9131 4.60428 10.802 4.65723 10.6147L4.90514 9.7379L5.24378 10.2938C5.34607 10.4617 5.57262 10.5192 5.74978 10.4223C5.92695 10.3253 5.98766 10.1106 5.88537 9.94273L5.1763 8.77881L5.52008 7.5629C5.52276 7.55343 5.525 7.54393 5.52682 7.53445C6.04748 7.58114 6.5822 7.45428 7.02645 7.15385C7.03298 7.16115 7.03988 7.16825 7.04714 7.17513L7.98636 8.06524L7.98636 9.40921C7.98636 9.6031 8.1522 9.76027 8.35678 9.76027C8.56136 9.76027 8.7272 9.6031 8.7272 9.40921V8.76734L9.40449 9.40921C9.54914 9.54631 9.78368 9.54631 9.92834 9.40921C10.073 9.27212 10.073 9.04984 9.92834 8.91275L9.25105 8.27088L9.92834 8.27088C10.1329 8.27088 10.2988 8.11371 10.2988 7.91982C10.2988 7.72594 10.1329 7.56877 9.92834 7.56877L8.51021 7.56877L7.571 6.67867C7.56373 6.67178 7.55623 6.66523 7.54853 6.65904C7.86549 6.23802 7.99933 5.73127 7.95004 5.23786C7.96008 5.23613 7.97013 5.234 7.98016 5.23145L9.26315 4.90565L10.4913 5.57764C10.6685 5.67458 10.895 5.61705 10.9973 5.44914C11.0996 5.28124 11.0389 5.06654 10.8617 4.9696L10.2752 4.64866L11.2004 4.41372C11.398 4.36354 11.5152 4.17104 11.4623 3.98377C11.4093 3.7965 11.2062 3.68536 11.0086 3.73554L10.0834 3.97048L10.4221 3.4146C10.5244 3.2467 10.4636 3.032 10.2865 2.93505C10.1093 2.83811 9.88276 2.89564 9.78047 3.06355L9.07141 4.22747L7.78842 4.55327C7.77856 4.55577 7.7689 4.55863 7.75945 4.56183C7.65227 4.33948 7.50213 4.13117 7.30902 3.94816C7.11592 3.76516 6.89612 3.62287 6.66151 3.52129C6.66488 3.51233 6.6679 3.50317 6.67054 3.49381L7.01432 2.27791L8.24246 1.60592C8.41963 1.50898 8.48033 1.29428 8.37804 1.12637C8.27575 0.958466 8.0492 0.900937 7.87204 0.997878L7.28549 1.31881L7.53339 0.441999C7.58634 0.254724 7.46907 0.062229 7.27146 0.012049C7.07386 -0.0381312 6.87074 0.0730062 6.81779 0.260281L6.56989 1.1371L6.23125 0.581218C6.12896 0.413312 5.90241 0.355783 5.72524 0.452723C5.54807 0.549664 5.48737 0.764364 5.58966 0.93227L6.29872 2.09619L5.95495 3.3121C5.95226 3.32161 5.95 3.33115 5.94818 3.34067C5.42754 3.29395 4.89283 3.42079 4.44859 3.72118C4.44205 3.71388 4.43514 3.70678 4.42787 3.69989L3.48866 2.80978L3.48866 1.4658C3.48866 1.27192 3.32282 1.11475 3.11824 1.11475C2.91366 1.11475 2.74782 1.27192 2.74782 1.4658V2.10768L2.07053 1.4658Z" fill="#00BCFF" fill-opacity="0.85"/>
<path d="M14.203 14.2314C13.9601 14.0016 13.5661 14.0016 13.3231 14.2314C13.0801 14.4611 13.0801 14.8336 13.3231 15.0634L14.4608 16.1391H13.3231C12.9795 16.1391 12.7009 16.4025 12.7009 16.7274C12.7009 17.0523 12.9795 17.3157 13.3231 17.3157H15.7052L17.2828 18.8074C17.295 18.8189 17.3076 18.8299 17.3205 18.8403C16.7881 19.5459 16.5632 20.3951 16.646 21.222C16.6291 21.2249 16.6123 21.2285 16.5955 21.2328L14.4404 21.7788L12.3775 20.6526C12.0799 20.4901 11.6993 20.5866 11.5275 20.8679C11.3557 21.1493 11.4577 21.5091 11.7553 21.6716L12.7405 22.2094L11.1864 22.6032C10.8545 22.6873 10.6575 23.0099 10.7465 23.3237C10.8354 23.6376 11.1766 23.8238 11.5085 23.7397L13.0626 23.346L12.4937 24.2776C12.3219 24.5589 12.4239 24.9187 12.7215 25.0812C13.0191 25.2437 13.3996 25.1473 13.5714 24.8659L14.7625 22.9153L16.9176 22.3693C16.9341 22.3651 16.9503 22.3603 16.9661 22.355C17.1461 22.7277 17.3983 23.0768 17.7227 23.3835C18.0471 23.6902 18.4163 23.9287 18.8105 24.0989C18.8048 24.1139 18.7998 24.1292 18.7954 24.1448L18.2179 26.1824L16.155 27.3086C15.8574 27.4711 15.7554 27.8309 15.9272 28.1123C16.099 28.3936 16.4796 28.4901 16.7772 28.3276L17.7624 27.7898L17.346 29.2592C17.2571 29.573 17.4541 29.8956 17.786 29.9797C18.1179 30.0638 18.4591 29.8776 18.548 29.5637L18.9644 28.0943L19.5333 29.0259C19.7051 29.3072 20.0856 29.4037 20.3832 29.2412C20.6808 29.0787 20.7828 28.7189 20.611 28.4375L19.4199 26.487L19.9974 24.4493C20.0019 24.4334 20.0057 24.4175 20.0087 24.4016C20.8833 24.4799 21.7815 24.2672 22.5277 23.7638C22.5387 23.776 22.5503 23.7879 22.5625 23.7994L24.1401 25.2911L24.1401 27.5434C24.1401 27.8684 24.4187 28.1318 24.7623 28.1318C25.1059 28.1318 25.3845 27.8684 25.3845 27.5434V26.4678L26.5222 27.5434C26.7652 27.7732 27.1591 27.7732 27.4021 27.5434C27.6451 27.3137 27.6451 26.9412 27.4021 26.7114L26.2645 25.6358L27.4021 25.6358C27.7458 25.6357 28.0243 25.3724 28.0243 25.0474C28.0243 24.7225 27.7458 24.4591 27.4021 24.4591L25.02 24.4591L23.4424 22.9674C23.4302 22.9559 23.4176 22.9449 23.4047 22.9345C23.9371 22.229 24.1619 21.3797 24.0791 20.5528C24.0959 20.5499 24.1128 20.5464 24.1297 20.5421L26.2848 19.9961L28.3477 21.1223C28.6453 21.2847 29.0259 21.1883 29.1977 20.9069C29.3695 20.6255 29.2675 20.2657 28.9699 20.1033L27.9847 19.5654L29.5388 19.1717C29.8707 19.0876 30.0677 18.765 29.9787 18.4512C29.8898 18.1373 29.5486 17.9511 29.2167 18.0352L27.6626 18.4289L28.2314 17.4973C28.4033 17.2159 28.3013 16.8561 28.0037 16.6936C27.7061 16.5312 27.3256 16.6276 27.1537 16.909L25.9627 18.8596L23.8076 19.4056C23.791 19.4098 23.7748 19.4145 23.7589 19.4199C23.5789 19.0473 23.3267 18.6982 23.0023 18.3915C22.678 18.0848 22.3088 17.8463 21.9147 17.6761C21.9204 17.6611 21.9254 17.6457 21.9299 17.6301L22.5073 15.5924L24.5703 14.4662C24.8679 14.3037 24.9698 13.9439 24.798 13.6625C24.6262 13.3812 24.2457 13.2847 23.9481 13.4472L22.9628 13.9851L23.3792 12.5156C23.4682 12.2018 23.2712 11.8792 22.9393 11.7951C22.6073 11.711 22.2661 11.8973 22.1772 12.2111L21.7608 13.6805L21.192 12.7489C21.0201 12.4676 20.6396 12.3711 20.342 12.5336C20.0444 12.6961 19.9424 13.0559 20.1143 13.3373L21.3053 15.2878L20.7279 17.3255C20.7233 17.3415 20.7196 17.3574 20.7165 17.3734C19.8419 17.2951 18.9438 17.5077 18.1976 18.0111C18.1866 17.9989 18.175 17.9869 18.1628 17.9754L16.5851 16.4837L16.5851 14.2314C16.5851 13.9065 16.3066 13.6431 15.9629 13.6431C15.6193 13.6431 15.3407 13.9065 15.3407 14.2314V15.3071L14.203 14.2314Z" fill="#00BCFF" fill-opacity="0.75"/>
<path d="M15.9929 3.68471C15.9078 3.59962 15.7698 3.59962 15.6847 3.68471C15.5996 3.7698 15.5996 3.90777 15.6847 3.99286L16.0831 4.39126H15.6847C15.5644 4.39126 15.4668 4.48882 15.4668 4.60916C15.4668 4.7295 15.5644 4.82705 15.6847 4.82705H16.5189L17.0714 5.37953C17.0757 5.38381 17.0801 5.38787 17.0846 5.39171C16.8981 5.65303 16.8194 5.96757 16.8484 6.27384C16.8425 6.27492 16.8366 6.27624 16.8307 6.27781L16.076 6.48004L15.3536 6.06294C15.2493 6.00277 15.1161 6.03848 15.0559 6.14269C14.9957 6.24691 15.0314 6.38017 15.1357 6.44034L15.4807 6.63955L14.9365 6.78537C14.8202 6.81652 14.7512 6.936 14.7824 7.05224C14.8135 7.16848 14.933 7.23746 15.0492 7.20631L15.5935 7.06048L15.3943 7.40551C15.3341 7.50973 15.3698 7.64299 15.474 7.70316C15.5782 7.76333 15.7115 7.72763 15.7717 7.62341L16.1888 6.90098L16.9435 6.69875C16.9493 6.6972 16.9549 6.69544 16.9605 6.69346C17.0235 6.83148 17.1118 6.96079 17.2254 7.07438C17.339 7.18798 17.4683 7.27631 17.6064 7.33936C17.6044 7.34489 17.6026 7.35055 17.6011 7.35633L17.3988 8.11103L16.6764 8.52813C16.5722 8.5883 16.5365 8.72156 16.5967 8.82577C16.6568 8.92999 16.7901 8.9657 16.8943 8.90553L17.2393 8.70633L17.0935 9.25056C17.0624 9.3668 17.1313 9.48628 17.2476 9.51742C17.3638 9.54857 17.4833 9.47959 17.5145 9.36335L17.6603 8.81912L17.8595 9.16415C17.9196 9.26836 18.0529 9.30407 18.1571 9.2439C18.2613 9.18373 18.2971 9.05047 18.2369 8.94625L17.8198 8.22382L18.022 7.46912C18.0236 7.46323 18.0249 7.45734 18.026 7.45146C18.3322 7.48044 18.6468 7.4017 18.9081 7.21523C18.9119 7.21975 18.916 7.22416 18.9203 7.22843L19.4728 7.78091L19.4728 8.6151C19.4728 8.73544 19.5703 8.833 19.6907 8.833C19.811 8.833 19.9085 8.73544 19.9085 8.6151V8.2167L20.307 8.6151C20.392 8.7002 20.53 8.7002 20.6151 8.6151C20.7002 8.53001 20.7002 8.39205 20.6151 8.30695L20.2167 7.90855L20.6151 7.90855C20.7354 7.90855 20.833 7.811 20.833 7.69066C20.833 7.57032 20.7354 7.47276 20.6151 7.47276L19.7809 7.47276L19.2284 6.92028C19.2242 6.91601 19.2197 6.91194 19.2152 6.9081C19.4017 6.64678 19.4804 6.33224 19.4514 6.02599C19.4573 6.02491 19.4632 6.02359 19.4691 6.02201L20.2238 5.81979L20.9462 6.23689C21.0505 6.29706 21.1837 6.26135 21.2439 6.15713C21.3041 6.05291 21.2684 5.91965 21.1641 5.85948L20.8191 5.66028L21.3633 5.51445C21.4796 5.48331 21.5486 5.36383 21.5174 5.24759C21.4863 5.13135 21.3668 5.06237 21.2506 5.09351L20.7063 5.23934L20.9055 4.89431C20.9657 4.79009 20.93 4.65683 20.8258 4.59666C20.7216 4.53649 20.5883 4.5722 20.5281 4.67642L20.111 5.39885L19.3563 5.60107C19.3505 5.60262 19.3448 5.6044 19.3393 5.60638C19.2762 5.46837 19.1879 5.33908 19.0743 5.22549C18.9607 5.1119 18.8314 5.02358 18.6934 4.96053C18.6954 4.95497 18.6972 4.94928 18.6988 4.94348L18.901 4.18878L19.6234 3.77168C19.7276 3.71151 19.7633 3.57825 19.7032 3.47403C19.643 3.36981 19.5097 3.3341 19.4055 3.39427L19.0605 3.59348L19.2063 3.04925C19.2375 2.93301 19.1685 2.81353 19.0522 2.78238C18.936 2.75123 18.8165 2.82022 18.7854 2.93646L18.6395 3.48069L18.4403 3.13566C18.3802 3.03144 18.2469 2.99573 18.1427 3.0559C18.0385 3.11607 18.0028 3.24934 18.0629 3.35355L18.48 4.07599L18.2778 4.83069C18.2762 4.83659 18.2749 4.84251 18.2738 4.84842C17.9676 4.81943 17.653 4.89815 17.3917 5.0846C17.3879 5.08007 17.3838 5.07566 17.3795 5.07138L16.8271 4.5189L16.8271 3.68471C16.8271 3.56437 16.7295 3.46682 16.6092 3.46682C16.4888 3.46682 16.3913 3.56437 16.3913 3.68471V4.08312L15.9929 3.68471Z" fill="#00BCFF" fill-opacity="0.65"/>
<path d="M3.61786 14.6349C3.53277 14.5498 3.3948 14.5498 3.30971 14.6349C3.22462 14.72 3.22462 14.858 3.30971 14.9431L3.70812 15.3415H3.30971C3.18937 15.3415 3.09182 15.439 3.09182 15.5594C3.09182 15.6797 3.18937 15.7772 3.30971 15.7772H4.14391L4.69638 16.3297C4.70066 16.334 4.70506 16.3381 4.70959 16.3419C4.52312 16.6032 4.44438 16.9178 4.47336 17.224C4.46747 17.2251 4.46157 17.2264 4.45569 17.228L3.70099 17.4302L2.97855 17.0131C2.87434 16.953 2.74107 16.9887 2.6809 17.0929C2.62073 17.1971 2.65644 17.3304 2.76066 17.3905L3.10569 17.5897L2.56146 17.7356C2.44522 17.7667 2.37623 17.8862 2.40738 18.0024C2.43853 18.1187 2.55801 18.1877 2.67425 18.1565L3.21848 18.0107L3.01927 18.3557C2.9591 18.4599 2.99481 18.5932 3.09903 18.6534C3.20325 18.7135 3.33651 18.6778 3.39668 18.5736L3.81378 17.8512L4.56848 17.6489C4.57426 17.6474 4.57992 17.6456 4.58546 17.6437C4.64851 17.7817 4.73683 17.911 4.85043 18.0246C4.96403 18.1382 5.09333 18.2265 5.23136 18.2896C5.22938 18.2951 5.22762 18.3007 5.22607 18.3065L5.02385 19.0612L4.30141 19.4783C4.1972 19.5385 4.16149 19.6718 4.22166 19.776C4.28183 19.8802 4.41509 19.9159 4.51931 19.8557L4.86434 19.6565L4.71851 20.2008C4.68736 20.317 4.75635 20.4365 4.87259 20.4676C4.98883 20.4988 5.1083 20.4298 5.13945 20.3135L5.28528 19.7693L5.48448 20.1143C5.54465 20.2186 5.67791 20.2543 5.78213 20.1941C5.88635 20.1339 5.92205 20.0007 5.86188 19.8964L5.44479 19.174L5.64701 18.4193C5.64858 18.4134 5.6499 18.4075 5.65097 18.4017C5.95724 18.4306 6.27178 18.3519 6.53311 18.1654C6.53695 18.1699 6.54101 18.1744 6.54528 18.1786L7.09776 18.7311L7.09776 19.5653C7.09776 19.6856 7.19531 19.7832 7.31565 19.7832C7.43599 19.7832 7.53355 19.6856 7.53355 19.5653V19.1669L7.93195 19.5653C8.01705 19.6504 8.15501 19.6504 8.2401 19.5653C8.3252 19.4802 8.3252 19.3422 8.2401 19.2571L7.8417 18.8587L8.2401 18.8587C8.36044 18.8587 8.458 18.7612 8.458 18.6409C8.458 18.5205 8.36044 18.423 8.2401 18.423L7.40591 18.423L6.85343 17.8705C6.84915 17.8662 6.84474 17.8621 6.84021 17.8583C7.02666 17.597 7.10539 17.2824 7.07639 16.9762C7.0823 16.9751 7.08821 16.9738 7.09412 16.9722L7.84882 16.77L8.57125 17.1871C8.67547 17.2473 8.80873 17.2115 8.8689 17.1073C8.92907 17.0031 8.89336 16.8698 8.78914 16.8097L8.44412 16.6105L8.98835 16.4646C9.10459 16.4335 9.17357 16.314 9.14242 16.1978C9.11127 16.0815 8.99179 16.0126 8.87556 16.0437L8.33133 16.1895L8.53053 15.8445C8.5907 15.7403 8.55499 15.607 8.45077 15.5469C8.34656 15.4867 8.21329 15.5224 8.15312 15.6266L7.73603 16.349L6.98133 16.5513C6.97553 16.5528 6.96984 16.5546 6.96428 16.5566C6.90124 16.4186 6.81292 16.2893 6.69933 16.1757C6.58574 16.0621 6.45644 15.9738 6.31844 15.9107C6.32042 15.9052 6.3222 15.8995 6.32375 15.8937L6.52597 15.139L7.24841 14.7219C7.35262 14.6617 7.38833 14.5284 7.32816 14.4242C7.26799 14.32 7.13473 14.2843 7.03051 14.3445L6.68548 14.5437L6.83131 13.9994C6.86246 13.8832 6.79347 13.7637 6.67723 13.7326C6.561 13.7014 6.44152 13.7704 6.41037 13.8867L6.26454 14.4309L6.06534 14.0859C6.00517 13.9816 5.87191 13.9459 5.76769 14.0061C5.66347 14.0663 5.62777 14.1995 5.68794 14.3037L6.10503 15.0262L5.90281 15.7809C5.90123 15.7868 5.89991 15.7927 5.89883 15.7986C5.59257 15.7696 5.27804 15.8483 5.01672 16.0348C5.01287 16.0303 5.00881 16.0259 5.00453 16.0216L4.45205 15.4691L4.45206 14.6349C4.45205 14.5146 4.3545 14.417 4.23416 14.417C4.11382 14.417 4.01627 14.5146 4.01627 14.6349V15.0333L3.61786 14.6349Z" fill="#00BCFF" fill-opacity="0.7"/>
</svg>
