<svg width="16" height="16" viewBox="0 0 16 16" fill="none" xmlns="http://www.w3.org/2000/svg">
<path d="M5 3.5C5 3.22386 5.22386 3 5.5 3H11.5C11.7761 3 12 3.22386 12 3.5C12 3.77614 11.7761 4 11.5 4H5.5C5.22386 4 5 3.77614 5 3.5ZM1 5.5C1 5.22386 1.22386 5 1.5 5H9C9.27614 5 9.5 5.22386 9.5 5.5C9.5 5.77614 9.27614 6 9 6H1.5C1.22386 6 1 5.77614 1 5.5ZM6 7.5C6 7.22386 6.22386 7 6.5 7H14.5C14.7761 7 15 7.22386 15 7.5C15 7.77614 14.7761 8 14.5 8H6.5C6.22386 8 6 7.77614 6 7.5ZM2 9C2 8.72386 2.22386 8.5 2.5 8.5H8.5C8.77614 8.5 9 8.72386 9 9C9 9.27614 8.77614 9.5 8.5 9.5H2.5C2.22386 9.5 2 9.27614 2 9ZM5 10.5C5 10.2239 5.22386 10 5.5 10H13C13.2761 10 13.5 10.2239 13.5 10.5C13.5 10.7761 13.2761 11 13 11H5.5C5.22386 11 5 10.7761 5 10.5ZM3.5 12.5C3.5 12.2239 3.72386 12 4 12H10C10.2761 12 10.5 12.2239 10.5 12.5C10.5 12.7761 10.2761 13 10 13H4C3.72386 13 3.5 12.7761 3.5 12.5Z" fill="#B9ACAC"/>
</svg>
