<svg width="16" height="16" viewBox="0 0 16 16" fill="none" xmlns="http://www.w3.org/2000/svg">
<path d="M7.81084 8C7.81084 8.4725 7.73326 8.87199 7.57811 9.19848C7.42508 9.52294 7.21254 9.76933 6.94049 9.93765C6.66844 10.1039 6.35494 10.1871 6 10.1871C5.64506 10.1871 5.33156 10.1039 5.05951 9.93765C4.78746 9.76933 4.57386 9.52294 4.4187 9.19848C4.26567 8.87199 4.18916 8.4725 4.18916 8C4.18916 7.52751 4.26567 7.12903 4.4187 6.80457C4.57386 6.47808 4.78746 6.23169 5.05951 6.0654C5.33156 5.89709 5.64506 5.81293 6 5.81293C6.35494 5.81293 6.66844 5.89709 6.94049 6.0654C7.21254 6.23169 7.42508 6.47808 7.57811 6.80457C7.73326 7.12903 7.81084 7.52751 7.81084 8Z" fill="#979797"/>
<path d="M13.9901 13.2449C13.8656 14.7872 12.5744 16 11 16C10.4536 16 9.94126 15.8539 9.5 15.5987C9.05874 15.8539 8.54643 16 8 16C7.45357 16 6.94126 15.8539 6.5 15.5987C6.05874 15.8539 5.54643 16 5 16C3.42559 16 2.13445 14.7872 2.00985 13.2449C1.39039 12.6953 1 11.8932 1 11C1 10.4653 1.13986 9.96336 1.38499 9.52864C0.552095 8.99557 0 8.06226 0 7C0 6.07316 0.420308 5.24448 1.08072 4.69418C1.02794 4.47137 1 4.23895 1 4C1 2.42559 2.2128 1.13445 3.75512 1.00985C4.30469 0.390386 5.10676 0 6 0C6.76836 0 7.46924 0.288854 8 0.763896C8.53076 0.288854 9.23164 0 10 0C10.8932 0 11.6953 0.390388 12.2449 1.00985C13.7872 1.13445 15 2.42559 15 4C15 4.23895 14.9721 4.47137 14.9193 4.69418C15.5797 5.24448 16 6.07316 16 7C16 8.06226 15.4479 8.99557 14.615 9.52864C14.8601 9.96336 15 10.4653 15 11C15 11.8932 14.6096 12.6953 13.9901 13.2449ZM9 8C9 7.32877 8.86823 6.75488 8.60468 6.27833C8.34325 5.79975 7.98619 5.43372 7.53347 5.18023C7.08289 4.92675 6.57173 4.8 6 4.8C5.42827 4.8 4.91605 4.92675 4.46334 5.18023C4.01275 5.43372 3.65569 5.79975 3.39214 6.27833C3.13071 6.75488 3 7.32877 3 8C3 8.6692 3.13071 9.2431 3.39214 9.72168C3.65569 10.1982 4.01275 10.5643 4.46334 10.8198C4.91605 11.0733 5.42827 11.2 6 11.2C6.57173 11.2 7.08289 11.0733 7.53347 10.8198C7.98619 10.5663 8.34325 10.2013 8.60468 9.72472C8.86823 9.24614 9 8.67123 9 8ZM10.7109 10.6536C10.9359 10.7512 11.1924 10.8 11.4804 10.8C11.7761 10.8 12.0383 10.7506 12.2672 10.6517C12.496 10.5529 12.6754 10.4172 12.8052 10.2449C12.9363 10.0725 13.0013 9.87541 13 9.65362C13.0013 9.41154 12.9254 9.21002 12.7724 9.04905C12.6234 8.88974 12.4075 8.79093 12.1246 8.75262C12.1157 8.75141 12.109 8.74389 12.109 8.73498C12.109 8.7264 12.1152 8.71907 12.1237 8.71746C12.3381 8.67673 12.5126 8.5851 12.6471 8.44259C12.7859 8.29683 12.8547 8.11496 12.8534 7.89696C12.8547 7.69164 12.7981 7.50659 12.6837 7.34183C12.5706 7.1758 12.4118 7.04398 12.2074 6.94639C12.003 6.8488 11.7645 6.8 11.4919 6.8C11.2219 6.8 10.9796 6.8488 10.7649 6.94639C10.5515 7.04272 10.3818 7.17643 10.2558 7.34753C10.1691 7.46529 10.1113 7.59566 10.0824 7.73863C10.0603 7.84824 10.1532 7.94069 10.2657 7.94069H10.6678C10.7759 7.94069 10.8591 7.85159 10.9065 7.75505C10.9191 7.7295 10.9342 7.70519 10.952 7.68213C11.0085 7.60862 11.0837 7.55222 11.1776 7.51293C11.2714 7.47237 11.3749 7.45209 11.4881 7.45209C11.5999 7.45209 11.6976 7.47301 11.7812 7.51483C11.866 7.55666 11.9316 7.61496 11.9779 7.68974C12.0255 7.76325 12.0493 7.8488 12.0493 7.94639C12.0493 8.04905 12.0223 8.13904 11.9683 8.21635C11.9143 8.2924 11.8384 8.35197 11.7407 8.39506C11.6443 8.43815 11.5331 8.4597 11.4071 8.4597H11.2399C11.1288 8.4597 11.0387 8.54924 11.0387 8.6597V8.86426C11.0387 8.97472 11.1288 9.06426 11.2399 9.06426H11.4071C11.5562 9.06426 11.6848 9.08708 11.7928 9.1327C11.902 9.17833 11.9856 9.2417 12.0435 9.32282C12.1026 9.40267 12.1322 9.49455 12.1322 9.59848C12.1322 9.70114 12.1045 9.79177 12.0493 9.87035C11.994 9.94893 11.9175 10.0104 11.8198 10.0548C11.7221 10.0991 11.6096 10.1213 11.4823 10.1213C11.3602 10.1213 11.2502 10.1017 11.1525 10.0624C11.0548 10.0231 10.9764 9.96794 10.9172 9.89696C10.8996 9.87493 10.8844 9.85183 10.8717 9.82768C10.822 9.73355 10.739 9.64601 10.6321 9.64601H10.1866C10.0741 9.64601 9.98124 9.73843 10.0033 9.84805C10.0325 9.9937 10.0916 10.1266 10.1806 10.2468C10.3104 10.4191 10.4872 10.5548 10.7109 10.6536Z" fill="#979797"/>
</svg>
