<svg width="16" height="16" viewBox="0 0 16 16" fill="none" xmlns="http://www.w3.org/2000/svg">
<mask id="path-1-inside-1_231_694" fill="white">
<path d="M12.2273 8.13071C12.1268 7.95643 11.8732 7.95643 11.7727 8.13071L8.03488 14.6119C7.93515 14.7848 8.06117 15 8.2622 15H15.7378C15.9388 15 16.0649 14.7848 15.9651 14.6119L12.2273 8.13071ZM11.3774 10.2743C11.3454 9.99246 11.6333 9.75 12 9.75C12.3667 9.75 12.6546 9.99246 12.6226 10.2743L12.3411 12.75H11.6589L11.3774 10.2743ZM12.5039 13.75C12.5039 14.0261 12.28 14.25 12.0039 14.25C11.7278 14.25 11.5039 14.0261 11.5039 13.75C11.5039 13.4739 11.7278 13.25 12.0039 13.25C12.28 13.25 12.5039 13.4739 12.5039 13.75Z"/>
</mask>
<path d="M12.2273 8.13071C12.1268 7.95643 11.8732 7.95643 11.7727 8.13071L8.03488 14.6119C7.93515 14.7848 8.06117 15 8.2622 15H15.7378C15.9388 15 16.0649 14.7848 15.9651 14.6119L12.2273 8.13071ZM11.3774 10.2743C11.3454 9.99246 11.6333 9.75 12 9.75C12.3667 9.75 12.6546 9.99246 12.6226 10.2743L12.3411 12.75H11.6589L11.3774 10.2743ZM12.5039 13.75C12.5039 14.0261 12.28 14.25 12.0039 14.25C11.7278 14.25 11.5039 14.0261 11.5039 13.75C11.5039 13.4739 11.7278 13.25 12.0039 13.25C12.28 13.25 12.5039 13.4739 12.5039 13.75Z" fill="black"/>
<path d="M11.7727 8.13071L15.2377 10.1291L15.2377 10.1291L11.7727 8.13071ZM12.2273 8.13071L8.76226 10.1291L8.76226 10.1291L12.2273 8.13071ZM8.03488 14.6119L11.4999 16.6102L11.4999 16.6102L8.03488 14.6119ZM15.9651 14.6119L19.4302 12.6135L19.4302 12.6135L15.9651 14.6119ZM11.3774 10.2743L15.3518 9.82243L15.3518 9.82243L11.3774 10.2743ZM12.6226 10.2743L16.597 10.7262L16.597 10.7262L12.6226 10.2743ZM12.3411 12.75V16.75H15.9121L16.3155 13.2019L12.3411 12.75ZM11.6589 12.75L7.68452 13.2019L8.08793 16.75H11.6589V12.75ZM15.2377 10.1291C13.7991 12.6237 10.2009 12.6236 8.76226 10.1291L15.6924 6.13236C14.0527 3.28922 9.94732 3.28921 8.30763 6.13235L15.2377 10.1291ZM11.4999 16.6102L15.2377 10.1291L8.30763 6.13235L4.56983 12.6135L11.4999 16.6102ZM8.2622 11C11.0755 11 12.97 14.0612 11.4999 16.6102L4.56983 12.6135C2.9003 15.5084 5.04686 19 8.2622 19V11ZM15.7378 11H8.2622V19H15.7378V11ZM12.5001 16.6102C11.03 14.0612 12.9245 11 15.7378 11V19C18.9531 19 21.0997 15.5084 19.4302 12.6135L12.5001 16.6102ZM8.76226 10.1291L12.5001 16.6102L19.4302 12.6135L15.6924 6.13235L8.76226 10.1291ZM12 5.75C10.9631 5.75 9.86305 6.08852 8.96253 6.84691C8.04647 7.61839 7.20563 8.98984 7.40304 10.7262L15.3518 9.82243C15.5172 11.2769 14.8043 12.3862 14.1158 12.966C13.4429 13.5327 12.6702 13.75 12 13.75V5.75ZM16.597 10.7262C16.7944 8.98984 15.9535 7.61839 15.0375 6.84691C14.137 6.08852 13.0369 5.75 12 5.75V13.75C11.3298 13.75 10.5571 13.5327 9.88415 12.966C9.19571 12.3862 8.4828 11.2769 8.64817 9.82243L16.597 10.7262ZM16.3155 13.2019L16.597 10.7262L8.64817 9.82243L8.36669 12.2981L16.3155 13.2019ZM11.6589 16.75H12.3411V8.75H11.6589V16.75ZM7.40304 10.7262L7.68452 13.2019L15.6333 12.2981L15.3518 9.82243L7.40304 10.7262ZM12.0039 18.25C14.4892 18.25 16.5039 16.2353 16.5039 13.75H8.50389C8.50389 11.817 10.0709 10.25 12.0039 10.25V18.25ZM7.50389 13.75C7.50389 16.2353 9.51861 18.25 12.0039 18.25V10.25C13.9369 10.25 15.5039 11.817 15.5039 13.75H7.50389ZM12.0039 9.25001C9.51861 9.25001 7.50389 11.2647 7.50389 13.75H15.5039C15.5039 15.683 13.9369 17.25 12.0039 17.25V9.25001ZM16.5039 13.75C16.5039 11.2647 14.4892 9.25001 12.0039 9.25001V17.25C10.0709 17.25 8.50389 15.683 8.50389 13.75H16.5039Z" fill="#FFC100" mask="url(#path-1-inside-1_231_694)"/>
<path d="M0.75 2C0.335786 2 0 2.33579 0 2.75C0 3.16421 0.335786 3.5 0.75 3.5H15.25C15.6642 3.5 16 3.16421 16 2.75C16 2.33579 15.6642 2 15.25 2H0.75Z" fill="#B9ACAC"/>
<path d="M7.75 5.5C7.33579 5.5 7 5.83579 7 6.25C7 6.66421 7.33579 7 7.75 7H15.25C15.6642 7 16 6.66421 16 6.25C16 5.83579 15.6642 5.5 15.25 5.5H7.75Z" fill="#B9ACAC"/>
<path d="M0 9.75C0 9.33579 0.335786 9 0.75 9H8.25C8.66421 9 9 9.33579 9 9.75C9 10.1642 8.66421 10.5 8.25 10.5H0.75C0.335786 10.5 0 10.1642 0 9.75Z" fill="#B9ACAC"/>
<path d="M0.750013 5.5C0.335799 5.5 1.28513e-05 5.83579 1.28513e-05 6.25C1.28513e-05 6.66421 0.335799 7 0.750013 7H5.25001C5.66423 7 6.00001 6.66421 6.00001 6.25C6.00001 5.83579 5.66423 5.5 5.25001 5.5H0.750013Z" fill="#B9ACAC"/>
</svg>
