<svg width="16" height="18" viewBox="0 0 16 18" fill="none" xmlns="http://www.w3.org/2000/svg">
<path d="M15.8586 9.14145L14.3414 10.6586C14.2154 10.7846 14 10.6954 14 10.5172V10H1C0.447716 10 0 9.55232 0 9.00003C0 8.44775 0.447715 8.00003 1 8.00003H14V7.48287C14 7.30469 14.2154 7.21546 14.3414 7.34145L15.8586 8.85861C15.9367 8.93671 15.9367 9.06335 15.8586 9.14145Z" fill="black"/>
<path d="M14 8.50003H14.5V8.20714L15.2929 9.00003L14.5 9.79292V9.50003H14H1C0.723858 9.50003 0.5 9.27617 0.5 9.00003C0.5 8.72389 0.723858 8.50003 1 8.50003H14Z" stroke="#979797"/>
<path d="M10.4618 3.99018C10.8498 4.38001 11.5143 4.46556 11.9777 4.14604C12.4175 3.84275 12.5142 3.28432 12.1547 2.90777C11.6562 2.38576 11.1498 1.97206 10.6354 1.66667C9.91031 1.22222 9.05907 1 8.08172 1C6.82062 1 5.78809 1.35417 4.98414 2.0625C4.19596 2.75694 3.80186 3.61111 3.80186 4.625C3.80186 5.09722 3.90433 5.56944 4.10926 6.04167C4.31418 6.51389 4.63734 6.95833 5.07873 7.375C5.26997 7.54931 5.52603 7.75764 5.84693 8H9.21306C9.15969 7.96535 9.10573 7.93063 9.05119 7.89583C7.6955 7.00694 6.8285 6.36806 6.45017 5.97917C6.07184 5.59028 5.88268 5.13889 5.88268 4.625C5.88268 4.09722 6.07972 3.66667 6.47382 3.33333C6.88367 3 7.38023 2.83333 7.96349 2.83333C8.56251 2.83333 9.08271 2.96528 9.5241 3.22917C9.79978 3.38531 10.1124 3.63898 10.4618 3.99018Z" fill="black"/>
<path d="M11.725 10C11.8441 10.1262 11.9538 10.2512 12.0542 10.375C12.6847 11.1528 13 11.9722 13 12.8333C13 13.9583 12.5034 14.9375 11.5103 15.7708C10.533 16.5903 9.39011 17 8.08172 17C6.04399 17 4.39552 16.1127 3.13631 14.338C2.8524 13.9378 3.03109 13.4195 3.49532 13.1842C3.98681 12.9351 4.6085 13.0977 4.9254 13.512C5.81174 14.6707 6.78502 15.25 7.84526 15.25C8.66497 15.25 9.36646 15.0208 9.94972 14.5625C10.533 14.1042 10.8246 13.5694 10.8246 12.9583C10.8246 12.3472 10.5803 11.7708 10.0916 11.2292C9.77483 10.869 9.30903 10.4593 8.6942 10H11.725Z" fill="black"/>
<path d="M9.2675 7.91612C9.21408 7.88144 9.16007 7.84669 9.10548 7.81186C7.74856 6.92213 6.8912 6.28909 6.52185 5.90944C6.16056 5.53806 5.98268 5.11128 5.98268 4.625C5.98268 4.12621 6.1671 3.72406 6.53767 3.4103C6.92767 3.09341 7.40103 2.93333 7.96349 2.93333C8.54746 2.93333 9.04931 3.06182 9.47278 3.315L9.47277 3.31502L9.47481 3.31618C9.73944 3.46606 10.0447 3.71278 10.3909 4.06072C10.8107 4.48256 11.5287 4.57711 12.0345 4.22837C12.5165 3.89595 12.6358 3.26686 12.227 2.83871C11.7237 2.31163 11.2105 1.89189 10.6871 1.58104C9.94414 1.12583 9.07444 0.9 8.08172 0.9C6.80083 0.9 5.7434 1.26027 4.91804 1.98747C4.10919 2.70012 3.70186 3.58123 3.70186 4.625C3.70186 5.11211 3.80764 5.59783 4.01752 6.08148C4.22872 6.56814 4.56059 7.0234 5.01008 7.44772L5.01007 7.44773L5.01136 7.44891C5.20576 7.62609 5.46449 7.83648 5.78666 8.0798L5.81341 8.1H5.84693H9.21306H9.55077L9.2675 7.91612ZM8.6942 9.9H8.39327L8.63435 10.0801C9.24651 10.5374 9.7062 10.9424 10.0165 11.2952L10.0165 11.2952L10.0173 11.2962C10.4928 11.8232 10.7246 12.3766 10.7246 12.9583C10.7246 13.5321 10.4528 14.04 9.88793 14.4839C9.32416 14.9269 8.64506 15.15 7.84526 15.15C6.82684 15.15 5.87984 14.5951 5.00483 13.4512C4.65974 13.0001 3.98615 12.8233 3.4501 13.095C2.94429 13.3514 2.7276 13.9347 3.05475 14.3958C4.33122 16.1948 6.00908 17.1 8.08172 17.1C9.41294 17.1 10.5787 16.6824 11.5746 15.8475L11.5746 15.8474C12.5865 14.9983 13.1 13.9926 13.1 12.8333C13.1 11.9457 12.7744 11.1046 12.1319 10.312C12.0298 10.1861 11.9184 10.0593 11.7977 9.93137L11.7681 9.9H11.725H8.6942Z" stroke="#979797" stroke-width="0.2"/>
<path d="M1 2.5C1.27614 2.5 1.5 2.27614 1.5 2C1.5 1.72386 1.27614 1.5 1 1.5C0.723858 1.5 0.5 1.72386 0.5 2C0.5 2.27614 0.723858 2.5 1 2.5Z" fill="#979797"/>
<path d="M2.5 4C2.77614 4 3 3.77614 3 3.5C3 3.22386 2.77614 3 2.5 3C2.22386 3 2 3.22386 2 3.5C2 3.77614 2.22386 4 2.5 4Z" fill="#979797"/>
<path d="M10.5 5.23047C10.5 5.64468 10.1642 5.98047 9.75 5.98047C9.33579 5.98047 9 5.64468 9 5.23047C9 4.81626 9.33579 4.48047 9.75 4.48047C10.1642 4.48047 10.5 4.81626 10.5 5.23047Z" fill="#979797"/>
<path d="M12.024 7.3465C12.3002 7.3465 12.524 7.12264 12.524 6.8465C12.524 6.57035 12.3002 6.3465 12.024 6.3465C11.7479 6.3465 11.524 6.57035 11.524 6.8465C11.524 7.12264 11.7479 7.3465 12.024 7.3465Z" fill="#979797"/>
<path d="M13.4779 5.14742C13.4779 5.42357 13.2541 5.64742 12.9779 5.64742C12.7018 5.64742 12.4779 5.42357 12.4779 5.14742C12.4779 4.87128 12.7018 4.64742 12.9779 4.64742C13.2541 4.64742 13.4779 4.87128 13.4779 5.14742Z" fill="#979797"/>
<path d="M6.5 13C6.77614 13 7 12.7761 7 12.5C7 12.2239 6.77614 12 6.5 12C6.22386 12 6 12.2239 6 12.5C6 12.7761 6.22386 13 6.5 13Z" fill="#979797"/>
<path d="M15 12.5C15 12.7761 14.7761 13 14.5 13C14.2239 13 14 12.7761 14 12.5C14 12.2239 14.2239 12 14.5 12C14.7761 12 15 12.2239 15 12.5Z" fill="#979797"/>
<path d="M4.5 12C4.77614 12 5 11.7761 5 11.5C5 11.2239 4.77614 11 4.5 11C4.22386 11 4 11.2239 4 11.5C4 11.7761 4.22386 12 4.5 12Z" fill="#979797"/>
<path d="M2.5 15C2.5 15.2761 2.27614 15.5 2 15.5C1.72386 15.5 1.5 15.2761 1.5 15C1.5 14.7239 1.72386 14.5 2 14.5C2.27614 14.5 2.5 14.7239 2.5 15Z" fill="#979797"/>
<path d="M1.75 12.5C2.16421 12.5 2.5 12.1642 2.5 11.75C2.5 11.3358 2.16421 11 1.75 11C1.33579 11 1 11.3358 1 11.75C1 12.1642 1.33579 12.5 1.75 12.5Z" fill="#979797"/>
<path d="M14.75 14.7927C14.75 15.2069 14.4142 15.5427 14 15.5427C13.5858 15.5427 13.25 15.2069 13.25 14.7927C13.25 14.3785 13.5858 14.0427 14 14.0427C14.4142 14.0427 14.75 14.3785 14.75 14.7927Z" fill="#979797"/>
<path d="M2 7C2.55228 7 3 6.55228 3 6C3 5.44772 2.55228 5 2 5C1.44772 5 1 5.44772 1 6C1 6.55228 1.44772 7 2 7Z" fill="#979797"/>
</svg>
