<svg width="16" height="16" viewBox="0 0 16 16" fill="none" xmlns="http://www.w3.org/2000/svg">
<path d="M10.8 3.5001C10.8 3.99715 10.3971 4.4001 9.90002 4.4001C9.40297 4.4001 9.00002 3.99715 9.00002 3.5001C9.00002 3.00304 9.40297 2.6001 9.90002 2.6001C10.3971 2.6001 10.8 3.00304 10.8 3.5001Z" fill="#B9ACAC"/>
<path d="M7.30002 4.4001C7.68662 4.4001 8.00002 4.0867 8.00002 3.7001C8.00002 3.3135 7.68662 3.0001 7.30002 3.0001C6.91342 3.0001 6.60002 3.3135 6.60002 3.7001C6.60002 4.0867 6.91342 4.4001 7.30002 4.4001Z" fill="#B9ACAC"/>
<path d="M5.60002 3.8001C5.60002 4.13147 5.3314 4.4001 5.00002 4.4001C4.66865 4.4001 4.40002 4.13147 4.40002 3.8001C4.40002 3.46873 4.66865 3.2001 5.00002 3.2001C5.3314 3.2001 5.60002 3.46873 5.60002 3.8001Z" fill="#B9ACAC"/>
<path d="M3.40002 3.9001C3.40002 4.17624 3.17617 4.4001 2.90002 4.4001C2.62388 4.4001 2.40002 4.17624 2.40002 3.9001C2.40002 3.62396 2.62388 3.4001 2.90002 3.4001C3.17617 3.4001 3.40002 3.62396 3.40002 3.9001Z" fill="#B9ACAC"/>
<path d="M12.7 4.4001C13.1971 4.4001 13.6 3.99715 13.6 3.5001C13.6 3.00304 13.1971 2.6001 12.7 2.6001C12.203 2.6001 11.8 3.00304 11.8 3.5001C11.8 3.99715 12.203 4.4001 12.7 4.4001Z" fill="#B9ACAC"/>
<path d="M15 10.6001C15.5523 10.6001 16 10.1524 16 9.6001C16 9.04781 15.5523 8.6001 15 8.6001C14.4477 8.6001 14 9.04781 14 9.6001C14 10.1524 14.4477 10.6001 15 10.6001Z" fill="#B9ACAC"/>
<path d="M9.29999 10.6001C9.79704 10.6001 10.2 10.1972 10.2 9.7001C10.2 9.20304 9.79704 8.8001 9.29999 8.8001C8.80293 8.8001 8.39999 9.20304 8.39999 9.7001C8.39999 10.1972 8.80293 10.6001 9.29999 10.6001Z" fill="#B9ACAC"/>
<path d="M7.39999 9.9001C7.39999 10.2867 7.08659 10.6001 6.69999 10.6001C6.31339 10.6001 5.99999 10.2867 5.99999 9.9001C5.99999 9.5135 6.31339 9.2001 6.69999 9.2001C7.08659 9.2001 7.39999 9.5135 7.39999 9.9001Z" fill="#B9ACAC"/>
<path d="M4.39999 10.6001C4.73136 10.6001 4.99999 10.3315 4.99999 10.0001C4.99999 9.66873 4.73136 9.4001 4.39999 9.4001C4.06862 9.4001 3.79999 9.66873 3.79999 10.0001C3.79999 10.3315 4.06862 10.6001 4.39999 10.6001Z" fill="#B9ACAC"/>
<path d="M2.29999 10.6001C2.57613 10.6001 2.79999 10.3762 2.79999 10.1001C2.79999 9.82396 2.57613 9.6001 2.29999 9.6001C2.02385 9.6001 1.79999 9.82396 1.79999 10.1001C1.79999 10.3762 2.02385 10.6001 2.29999 10.6001Z" fill="#B9ACAC"/>
<path d="M13 9.7001C13 10.1972 12.597 10.6001 12.1 10.6001C11.6029 10.6001 11.2 10.1972 11.2 9.7001C11.2 9.20304 11.6029 8.8001 12.1 8.8001C12.597 8.8001 13 9.20304 13 9.7001Z" fill="#B9ACAC"/>
<path d="M2.40002 12.5001C2.40002 12.9972 2.80297 13.4001 3.30002 13.4001C3.79708 13.4001 4.20002 12.9972 4.20002 12.5001C4.20002 12.003 3.79708 11.6001 3.30002 11.6001C2.80297 11.6001 2.40002 12.003 2.40002 12.5001Z" fill="#B9ACAC"/>
<path d="M6.10002 13.4001C5.60297 13.4001 5.20002 12.9972 5.20002 12.5001C5.20002 12.003 5.60297 11.6001 6.10002 11.6001C6.59708 11.6001 7.00002 12.003 7.00002 12.5001C7.00002 12.9972 6.59708 13.4001 6.10002 13.4001Z" fill="#B9ACAC"/>
<path d="M8.00002 12.7001C8.00002 13.0867 8.31343 13.4001 8.70002 13.4001C9.08662 13.4001 9.40002 13.0867 9.40002 12.7001C9.40002 12.3135 9.08662 12.0001 8.70002 12.0001C8.31343 12.0001 8.00002 12.3135 8.00002 12.7001Z" fill="#B9ACAC"/>
<path d="M11 13.4001C10.6687 13.4001 10.4 13.1315 10.4 12.8001C10.4 12.4687 10.6687 12.2001 11 12.2001C11.3314 12.2001 11.6 12.4687 11.6 12.8001C11.6 13.1315 11.3314 13.4001 11 13.4001Z" fill="#B9ACAC"/>
<path d="M13.1 13.4001C12.8239 13.4001 12.6 13.1762 12.6 12.9001C12.6 12.624 12.8239 12.4001 13.1 12.4001C13.3762 12.4001 13.6 12.624 13.6 12.9001C13.6 13.1762 13.3762 13.4001 13.1 13.4001Z" fill="#B9ACAC"/>
<path d="M1 7.6001C0.447715 7.6001 0 7.15238 0 6.6001C0 6.04781 0.447715 5.6001 1 5.6001C1.55228 5.6001 2 6.04781 2 6.6001C2 7.15238 1.55228 7.6001 1 7.6001Z" fill="#B9ACAC"/>
<path d="M3 6.7001C3 7.19715 3.40294 7.6001 3.9 7.6001C4.39706 7.6001 4.8 7.19715 4.8 6.7001C4.8 6.20304 4.39706 5.8001 3.9 5.8001C3.40294 5.8001 3 6.20304 3 6.7001Z" fill="#B9ACAC"/>
<path d="M6.7 7.6001C6.20294 7.6001 5.8 7.19715 5.8 6.7001C5.8 6.20304 6.20294 5.8001 6.7 5.8001C7.19706 5.8001 7.6 6.20304 7.6 6.7001C7.6 7.19715 7.19706 7.6001 6.7 7.6001Z" fill="#B9ACAC"/>
<path d="M8.6 6.9001C8.6 7.2867 8.9134 7.6001 9.3 7.6001C9.6866 7.6001 10 7.2867 10 6.9001C10 6.5135 9.6866 6.2001 9.3 6.2001C8.9134 6.2001 8.6 6.5135 8.6 6.9001Z" fill="#B9ACAC"/>
<path d="M11.6 7.6001C11.2686 7.6001 11 7.33147 11 7.0001C11 6.66873 11.2686 6.4001 11.6 6.4001C11.9314 6.4001 12.2 6.66873 12.2 7.0001C12.2 7.33147 11.9314 7.6001 11.6 7.6001Z" fill="#B9ACAC"/>
<path d="M13.7 7.6001C13.4239 7.6001 13.2 7.37624 13.2 7.1001C13.2 6.82396 13.4239 6.6001 13.7 6.6001C13.9761 6.6001 14.2 6.82396 14.2 7.1001C14.2 7.37624 13.9761 7.6001 13.7 7.6001Z" fill="#B9ACAC"/>
</svg>
