<svg width="16" height="16" viewBox="0 0 16 16" fill="none" xmlns="http://www.w3.org/2000/svg">
<path d="M10.6491 0.631054C10.2842 0.242615 9.76594 0 9.19098 0C8.38487 0 7.69016 0.476901 7.37357 1.16395C7.16882 1.05913 6.93681 1 6.69098 1C6.03657 1 5.48003 1.41907 5.2751 2.00349C5.24737 2.00118 5.21931 2 5.19098 2C4.75478 2 4.38381 2.27929 4.24713 2.66879C4.08811 2.56219 3.89681 2.5 3.69098 2.5C3.13869 2.5 2.69098 2.94772 2.69098 3.5C2.69098 4.05228 3.13869 4.5 3.69098 4.5C4.12718 4.5 4.49815 4.22071 4.63483 3.83121C4.79384 3.93781 4.98515 4 5.19098 4C5.44647 4 5.67958 3.90419 5.85634 3.74653C6.09495 3.90661 6.38206 4 6.69098 4C6.8861 4 7.07252 3.96274 7.24352 3.89496C7.41687 4.53177 7.99924 5 8.69098 5C9.03557 5 9.35303 4.8838 9.6063 4.68845C10.0633 5.18725 10.7201 5.5 11.45 5.5C12.4868 5.5 13.3762 4.86883 13.7549 3.96975C13.8334 3.98951 13.9155 4 14 4C14.5523 4 15 3.55229 15 3C15 2.56198 14.7184 2.18974 14.3263 2.05446C14.3304 2.018 14.3324 1.98095 14.3324 1.94341C14.3324 1.39113 13.8847 0.943414 13.3324 0.943414C13.2033 0.943414 13.0799 0.967881 12.9666 1.01243C12.546 0.690962 12.0203 0.5 11.45 0.5C11.1699 0.5 10.9005 0.546073 10.6491 0.631054Z" fill="#B9ACAC"/>
<path d="M2.00005 5.75002C2.41426 5.75002 2.75005 5.41424 2.75005 5.00002C2.75005 4.58581 2.41426 4.25002 2.00005 4.25002C1.58583 4.25002 1.25005 4.58581 1.25005 5.00002C1.25005 5.41424 1.58583 5.75002 2.00005 5.75002Z" fill="#B9ACAC"/>
<path d="M1.5 7C1.77614 7 2 6.77614 2 6.5C2 6.22386 1.77614 6 1.5 6C1.22386 6 1 6.22386 1 6.5C1 6.77614 1.22386 7 1.5 7Z" fill="#B9ACAC"/>
<path d="M4.50005 6.75001C4.50005 7.16422 4.16426 7.50001 3.75005 7.50001C3.33583 7.50001 3.00005 7.16422 3.00005 6.75001C3.00005 6.3358 3.33583 6.00001 3.75005 6.00001C4.16426 6.00001 4.50005 6.3358 4.50005 6.75001Z" fill="#B9ACAC"/>
<path d="M2.28933 8.45359C2.56547 8.45359 2.78933 8.22973 2.78933 7.95359C2.78933 7.67744 2.56547 7.45359 2.28933 7.45359C2.01318 7.45359 1.78933 7.67744 1.78933 7.95359C1.78933 8.22973 2.01318 8.45359 2.28933 8.45359Z" fill="#B9ACAC"/>
<path d="M4.00003 9C4.00003 9.27614 3.77617 9.5 3.50003 9.5C3.22388 9.5 3.00003 9.27614 3.00003 9C3.00003 8.72386 3.22388 8.5 3.50003 8.5C3.77617 8.5 4.00003 8.72386 4.00003 9Z" fill="#B9ACAC"/>
<path d="M3.5 1.5C3.5 1.77614 3.27614 2 3 2C2.72386 2 2.5 1.77614 2.5 1.5C2.5 1.22386 2.72386 1 3 1C3.27614 1 3.5 1.22386 3.5 1.5Z" fill="#B9ACAC"/>
<path d="M5 1.5C5.27614 1.5 5.5 1.27614 5.5 1C5.5 0.723858 5.27614 0.5 5 0.5C4.72386 0.5 4.5 0.723858 4.5 1C4.5 1.27614 4.72386 1.5 5 1.5Z" fill="#B9ACAC"/>
<path d="M5 5C5 5.27614 4.77614 5.5 4.5 5.5C4.22386 5.5 4 5.27614 4 5C4 4.72386 4.22386 4.5 4.5 4.5C4.77614 4.5 5 4.72386 5 5Z" fill="#B9ACAC"/>
<path d="M4.25 7.89642L3.89645 8.24998L4.25 8.60353L4.60355 8.24998L4.25 7.89642Z" fill="#B9ACAC"/>
<path d="M4.00002 10.3536L4.35358 10L4.70713 10.3536L4.35358 10.7071L4.00002 10.3536Z" fill="#B9ACAC"/>
<path d="M2.35358 9L2.00002 9.35355L2.35358 9.70711L2.70713 9.35355L2.35358 9Z" fill="#B9ACAC"/>
<path d="M3.63698 11.156L3.07582 10.0337L0 14.3398V16.0001H16V14.5001H12.6296L7.97632 11.9149L6.52685 12.8812L3.96289 10.8301L3.63698 11.156Z" fill="#B9ACAC"/>
</svg>
