<svg width="16" height="16" viewBox="0 0 16 16" fill="none" xmlns="http://www.w3.org/2000/svg">
<path d="M6.05252 10.1768C6.14825 10.0332 6.34227 9.99438 6.48587 10.0901L7.12158 10.5139C7.21489 10.5761 7.33438 10.5836 7.43468 10.5334L8.08076 10.2104C8.34469 10.0784 8.65535 10.0784 8.91928 10.2104L9.61025 10.5559C9.69823 10.5999 9.80178 10.5999 9.88976 10.5559L10.5807 10.2104C10.8447 10.0784 11.1553 10.0784 11.4193 10.2104L12.1102 10.5559C12.1982 10.5999 12.3018 10.5999 12.3897 10.5559L13.0807 10.2104C13.3447 10.0784 13.6553 10.0784 13.9192 10.2104L14.5653 10.5334C14.6656 10.5836 14.7851 10.5761 14.8784 10.5139L15.5141 10.0901C15.6577 9.99438 15.8517 10.0332 15.9475 10.1768C16.0432 10.3204 16.0044 10.5144 15.8608 10.6101L15.2251 11.0339C14.9452 11.2206 14.5867 11.2429 14.2858 11.0924L13.6397 10.7694C13.5518 10.7254 13.4482 10.7254 13.3602 10.7694L12.6693 11.1149C12.4053 11.2468 12.0947 11.2468 11.8307 11.1149L11.1398 10.7694C11.0518 10.7254 10.9482 10.7254 10.8602 10.7694L10.1693 11.1149C9.90534 11.2468 9.59468 11.2468 9.33075 11.1149L8.63977 10.7694C8.55179 10.7254 8.44824 10.7254 8.36026 10.7694L7.71419 11.0924C7.41328 11.2429 7.05482 11.2206 6.7749 11.0339L6.13919 10.6101C5.99559 10.5144 5.95678 10.3204 6.05252 10.1768Z" fill="#979797"/>
<path d="M6.05252 11.6768C6.14825 11.5332 6.34227 11.4944 6.48587 11.5901L7.12158 12.0139C7.21489 12.0761 7.33438 12.0836 7.43468 12.0334L8.08076 11.7104C8.34469 11.5784 8.65535 11.5784 8.91928 11.7104L9.61025 12.0559C9.69823 12.0998 9.80178 12.0998 9.88976 12.0559L10.5807 11.7104C10.8447 11.5784 11.1553 11.5784 11.4193 11.7104L12.1102 12.0559C12.1982 12.0998 12.3018 12.0998 12.3897 12.0559L13.0807 11.7104C13.3447 11.5784 13.6553 11.5784 13.9192 11.7104L14.5653 12.0334C14.6656 12.0836 14.7851 12.0761 14.8784 12.0139L15.5141 11.5901C15.6577 11.4944 15.8517 11.5332 15.9475 11.6768C16.0432 11.8204 16.0044 12.0144 15.8608 12.1101L15.2251 12.5339C14.9452 12.7206 14.5867 12.7429 14.2858 12.5924L13.6397 12.2694C13.5518 12.2254 13.4482 12.2254 13.3602 12.2694L12.6693 12.6149C12.4053 12.7468 12.0947 12.7468 11.8307 12.6149L11.1398 12.2694C11.0518 12.2254 10.9482 12.2254 10.8602 12.2694L10.1693 12.6149C9.90534 12.7468 9.59468 12.7468 9.33075 12.6149L8.63977 12.2694C8.55179 12.2254 8.44824 12.2254 8.36026 12.2694L7.71419 12.5924C7.41328 12.7429 7.05482 12.7206 6.7749 12.5339L6.13919 12.1101C5.99559 12.0144 5.95678 11.8204 6.05252 11.6768Z" fill="#979797"/>
<path d="M6.48587 13.0901C6.34227 12.9944 6.14825 13.0332 6.05252 13.1768C5.95678 13.3204 5.99559 13.5144 6.13919 13.6101L6.7749 14.0339C7.05482 14.2205 7.41328 14.2429 7.71419 14.0924L8.36026 13.7694C8.44824 13.7254 8.55179 13.7254 8.63977 13.7694L9.33075 14.1149C9.59468 14.2468 9.90534 14.2468 10.1693 14.1149L10.8602 13.7694C10.9482 13.7254 11.0518 13.7254 11.1398 13.7694L11.8307 14.1149C12.0947 14.2468 12.4053 14.2468 12.6693 14.1149L13.3602 13.7694C13.4482 13.7254 13.5518 13.7254 13.6397 13.7694L14.2858 14.0924C14.5867 14.2429 14.9452 14.2205 15.2251 14.0339L15.8608 13.6101C16.0044 13.5144 16.0432 13.3204 15.9475 13.1768C15.8517 13.0332 15.6577 12.9944 15.5141 13.0901L14.8784 13.5139C14.7851 13.5761 14.6656 13.5835 14.5653 13.5334L13.9192 13.2103C13.6553 13.0784 13.3447 13.0784 13.0807 13.2103L12.3897 13.5558C12.3018 13.5998 12.1982 13.5998 12.1102 13.5558L11.4193 13.2103C11.1553 13.0784 10.8447 13.0784 10.5807 13.2103L9.88976 13.5558C9.80178 13.5998 9.69823 13.5998 9.61025 13.5558L8.91928 13.2103C8.65535 13.0784 8.34469 13.0784 8.08076 13.2103L7.43468 13.5334C7.33438 13.5835 7.21489 13.5761 7.12158 13.5139L6.48587 13.0901Z" fill="#979797"/>
<path d="M15.4967 3.07671C15.4967 3.07671 7.52496 0.72205 4.8445 0.0225095C4.64264 -0.0266093 4.42959 0.00535958 4.25103 0.11156C4.07246 0.21776 3.94261 0.389734 3.88931 0.590601L0.0239996 15.0009C-0.0258931 15.2012 0.00263088 15.4131 0.103734 15.593C0.204836 15.773 0.370873 15.9075 0.567862 15.9691C0.774061 16.0277 0.99508 16.0023 1.18262 15.8984C1.37017 15.7946 1.50899 15.6206 1.56875 15.4147L3.23919 9.18512L15.6121 4.36835C15.7379 4.30637 15.8421 4.20772 15.9109 4.08538C15.9796 3.96303 16.0097 3.82273 15.9972 3.68293C15.9848 3.54313 15.9302 3.41039 15.8409 3.30219C15.7515 3.19398 15.6315 3.11537 15.4967 3.07671Z" fill="#979797"/>
</svg>
