<svg width="16" height="16" viewBox="0 0 16 16" fill="none" xmlns="http://www.w3.org/2000/svg">
<path d="M8.0037 6.9336C6.4133 6.9336 4.9109 6.6792 3.7765 6.22C2.5349 5.716 1.8501 5.004 1.8501 4.2168C1.8501 3.428 2.5349 2.716 3.7765 2.2136C4.9125 1.7528 6.4133 1.5 8.0037 1.5C9.5941 1.5 11.0965 1.7544 12.2309 2.2136C13.4725 2.7176 14.1573 3.4296 14.1573 4.2168C14.1573 5.0056 13.4725 5.7176 12.2309 6.22C11.3385 6.58071 10.2211 6.81505 9.01193 6.89898C8.73563 6.92187 8.45041 6.93365 8.16046 6.93365C8.15295 6.93365 8.1455 6.93343 8.13811 6.93299C8.09338 6.9334 8.04858 6.9336 8.0037 6.9336ZM13.4117 4.2152C13.4117 3.764 12.8661 3.2744 11.9509 2.9032C10.9013 2.4776 9.4997 2.244 8.0037 2.244C6.5061 2.244 5.1045 2.4776 4.0565 2.9032C3.1429 3.2744 2.5957 3.764 2.5957 4.2152C2.5957 4.6664 3.1413 5.156 4.0565 5.5272C5.1045 5.9528 6.5061 6.1864 8.0037 6.1864C8.31967 6.1864 8.63136 6.176 8.93637 6.15559C9.55123 6.10573 10.1131 5.9967 10.5653 5.83765C11.2213 5.60565 11.3637 5.36725 11.3637 5.29525C11.3637 5.22325 11.2197 4.98485 10.5653 4.75285C9.92846 4.52725 9.07566 4.40405 8.16046 4.40405C7.95406 4.40405 7.78766 4.23765 7.78766 4.03125C7.78766 3.82485 7.95406 3.65845 8.16046 3.65845C9.15726 3.65845 10.0997 3.79765 10.8133 4.05045C11.8853 4.42965 12.1093 4.93845 12.1093 5.29685C12.1093 5.35079 12.1042 5.40804 12.092 5.46767C12.9205 5.10461 13.4117 4.64267 13.4117 4.2152Z" fill="#B9ACAC"/>
<path d="M7.0981 14.4456C7.6133 14.7128 8.2901 14.8584 9.0037 14.8584C9.7173 14.8584 10.3925 14.7128 10.9093 14.4456C11.5029 14.14 11.8293 13.7048 11.8293 13.22C11.8293 13.0136 11.6629 12.8472 11.4565 12.8472C11.2501 12.8472 11.0837 13.0136 11.0837 13.22C11.0837 13.4056 10.8901 13.6168 10.5669 13.7832C10.1621 13.9928 9.5925 14.1128 9.0037 14.1128C8.4149 14.1128 7.8453 13.9928 7.4405 13.7832C7.1173 13.6168 6.9237 13.4056 6.9237 13.22C6.9237 13.0136 6.7573 12.8472 6.5509 12.8472C6.3445 12.8472 6.1781 13.0136 6.1781 13.22C6.1781 13.7032 6.5045 14.14 7.0981 14.4456Z" fill="#B9ACAC"/>
<path d="M8.00367 12.348C7.00207 12.348 6.05327 12.188 5.33487 11.8952C4.50927 11.5608 4.05487 11.0728 4.05487 10.524C4.05487 10.3176 4.22127 10.1512 4.42767 10.1512C4.63407 10.1512 4.80047 10.3176 4.80047 10.524C4.80047 10.7368 5.12047 11.004 5.61487 11.204C6.24687 11.46 7.09487 11.6008 8.00367 11.6008C8.91247 11.6008 9.76047 11.46 10.3925 11.204C10.8869 11.004 11.2069 10.7368 11.2069 10.524C11.2069 10.3176 11.3733 10.1512 11.5797 10.1512C11.7861 10.1512 11.9525 10.3176 11.9525 10.524C11.9525 11.0728 11.4981 11.5608 10.6725 11.8952C9.95247 12.188 9.00527 12.348 8.00367 12.348Z" fill="#B9ACAC"/>
<path d="M3.91886 9.31283C4.74926 9.64883 5.84526 9.83443 7.00366 9.83443C8.16206 9.83443 9.25806 9.65043 10.0853 9.31283C11.0229 8.93203 11.5381 8.38483 11.5381 7.77203C11.5381 7.56563 11.3717 7.39923 11.1653 7.39923C10.9589 7.39923 10.7925 7.56563 10.7925 7.77203C10.7925 8.04883 10.4133 8.37363 9.80526 8.62003C9.06286 8.92083 8.06766 9.08723 7.00206 9.08723C5.93806 9.08723 4.94126 8.92083 4.19886 8.62003C3.58926 8.37363 3.21166 8.04883 3.21166 7.77203C3.21166 7.56563 3.04526 7.39923 2.83886 7.39923C2.63246 7.39923 2.46606 7.56563 2.46606 7.77203C2.46606 8.38643 2.98286 8.93363 3.91886 9.31283Z" fill="#B9ACAC"/>
<path d="M4.5 1C4.77614 1 5 0.776142 5 0.5C5 0.223858 4.77614 0 4.5 0C4.22386 0 4 0.223858 4 0.5C4 0.776142 4.22386 1 4.5 1Z" fill="#B9ACAC"/>
<path d="M14.5 3C14.7761 3 15 2.77614 15 2.5C15 2.22386 14.7761 2 14.5 2C14.2239 2 14 2.22386 14 2.5C14 2.77614 14.2239 3 14.5 3Z" fill="#B9ACAC"/>
<path d="M6.5 5C6.77614 5 7 4.77614 7 4.5C7 4.22386 6.77614 4 6.5 4C6.22386 4 6 4.22386 6 4.5C6 4.77614 6.22386 5 6.5 5Z" fill="#B9ACAC"/>
<path d="M14 7.5C14 7.77614 13.7761 8 13.5 8C13.2239 8 13 7.77614 13 7.5C13 7.22386 13.2239 7 13.5 7C13.7761 7 14 7.22386 14 7.5Z" fill="#B9ACAC"/>
<path d="M11.5 0.75C11.5 1.16421 11.1642 1.5 10.75 1.5C10.3358 1.5 10 1.16421 10 0.75C10 0.335786 10.3358 0 10.75 0C11.1642 0 11.5 0.335786 11.5 0.75Z" fill="#B9ACAC"/>
<path d="M12.75 10.5C13.1642 10.5 13.5 10.1642 13.5 9.75C13.5 9.33579 13.1642 9 12.75 9C12.3358 9 12 9.33579 12 9.75C12 10.1642 12.3358 10.5 12.75 10.5Z" fill="#B9ACAC"/>
<path d="M2 7.5C2 7.77614 1.77614 8 1.5 8C1.22386 8 1 7.77614 1 7.5C1 7.22386 1.22386 7 1.5 7C1.77614 7 2 7.22386 2 7.5Z" fill="#B9ACAC"/>
<path d="M2.75 2.5C3.16421 2.5 3.5 2.16421 3.5 1.75C3.5 1.33579 3.16421 1 2.75 1C2.33579 1 2 1.33579 2 1.75C2 2.16421 2.33579 2.5 2.75 2.5Z" fill="#B9ACAC"/>
</svg>
