<svg width="30" height="30" viewBox="0 0 30 30" fill="none" xmlns="http://www.w3.org/2000/svg">
<path d="M30 13C30 20.1797 24.1797 26 17 26C9.8203 26 4 20.1797 4 13C4 5.8203 9.8203 0 17 0C24.1797 0 30 5.8203 30 13Z" fill="url(#paint0_linear_235_771)"/>
<g filter="url(#filter0_i_235_771)">
<path d="M15.9218 24.1163C15.9678 23.8232 15.9917 23.5216 15.9917 23.2138C15.9917 20.3343 13.8938 18 11.3058 18C9.38184 18 7.72871 19.2901 7.00704 21.1352C6.42239 20.5736 5.66375 20.2345 4.83471 20.2345C2.98616 20.2345 1.4876 21.9204 1.4876 24C1.4876 24.1158 1.49225 24.2304 1.50135 24.3435C0.612223 24.8281 -2.19447e-07 25.8448 -2.19447e-07 27.0207C-2.19447e-07 28.6661 1.19884 30 2.67769 30H15.3223C16.8012 30 18 28.6661 18 27.0207C18 25.6046 17.112 24.4192 15.9218 24.1163Z" fill="url(#paint1_linear_235_771)"/>
</g>
<defs>
<filter id="filter0_i_235_771" x="0" y="18" width="18" height="22" filterUnits="userSpaceOnUse" color-interpolation-filters="sRGB">
<feFlood flood-opacity="0" result="BackgroundImageFix"/>
<feBlend mode="normal" in="SourceGraphic" in2="BackgroundImageFix" result="shape"/>
<feColorMatrix in="SourceAlpha" type="matrix" values="0 0 0 0 0 0 0 0 0 0 0 0 0 0 0 0 0 0 127 0" result="hardAlpha"/>
<feOffset dy="11"/>
<feGaussianBlur stdDeviation="5"/>
<feComposite in2="hardAlpha" operator="arithmetic" k2="-1" k3="1"/>
<feColorMatrix type="matrix" values="0 0 0 0 0.929167 0 0 0 0 0.929167 0 0 0 0 0.929167 0 0 0 0.9 0"/>
<feBlend mode="normal" in2="shape" result="effect1_innerShadow_235_771"/>
</filter>
<linearGradient id="paint0_linear_235_771" x1="15.0253" y1="20.0759" x2="25.7215" y2="1.31646" gradientUnits="userSpaceOnUse">
<stop stop-color="#FF9900"/>
<stop offset="1" stop-color="#FFEE94"/>
</linearGradient>
<linearGradient id="paint1_linear_235_771" x1="1.14488" y1="28.9286" x2="20.7608" y2="15.8664" gradientUnits="userSpaceOnUse">
<stop stop-color="white"/>
<stop offset="1" stop-color="#DEDEDE" stop-opacity="0.7"/>
</linearGradient>
</defs>
</svg>
