<svg width="30" height="30" viewBox="0 0 30 30" fill="none" xmlns="http://www.w3.org/2000/svg">
<g filter="url(#filter0_i_109_594)">
<path d="M30 13C30 20.1797 25.2648 26 19.4237 26C13.5826 26 8.84741 20.1797 8.84741 13C8.84741 5.8203 13.5826 0 19.4237 0C25.2648 0 30 5.8203 30 13Z" fill="url(#paint0_linear_109_594)"/>
</g>
<g filter="url(#filter1_bi_109_594)">
<g filter="url(#filter2_i_109_594)">
<path d="M25.4569 19.7036C25.5304 19.1905 25.5687 18.6628 25.5687 18.1241C25.5687 13.085 22.2143 9 18.0765 9C15.0003 9 12.3572 11.2577 11.2033 14.4866C10.2686 13.5038 9.0556 12.9103 7.73008 12.9103C4.77447 12.9103 2.37848 15.8606 2.37848 19.5C2.37848 19.7027 2.38591 19.9032 2.40046 20.1012C0.978865 20.9492 0 22.7285 0 24.7862C0 27.6657 1.91679 30 4.28127 30H24.4984C26.8629 30 28.7797 27.6657 28.7797 24.7862C28.7797 22.308 27.3599 20.2336 25.4569 19.7036Z" fill="url(#paint1_linear_109_594)"/>
</g>
</g>
<defs>
<filter id="filter0_i_109_594" x="8.84741" y="0" width="21.1526" height="31" filterUnits="userSpaceOnUse" color-interpolation-filters="sRGB">
<feFlood flood-opacity="0" result="BackgroundImageFix"/>
<feBlend mode="normal" in="SourceGraphic" in2="BackgroundImageFix" result="shape"/>
<feColorMatrix in="SourceAlpha" type="matrix" values="0 0 0 0 0 0 0 0 0 0 0 0 0 0 0 0 0 0 127 0" result="hardAlpha"/>
<feOffset dy="5"/>
<feGaussianBlur stdDeviation="9"/>
<feComposite in2="hardAlpha" operator="arithmetic" k2="-1" k3="1"/>
<feColorMatrix type="matrix" values="0 0 0 0 1 0 0 0 0 1 0 0 0 0 1 0 0 0 0.4 0"/>
<feBlend mode="normal" in2="shape" result="effect1_innerShadow_109_594"/>
</filter>
<filter id="filter1_bi_109_594" x="-10" y="-1" width="48.7795" height="41" filterUnits="userSpaceOnUse" color-interpolation-filters="sRGB">
<feFlood flood-opacity="0" result="BackgroundImageFix"/>
<feGaussianBlur in="BackgroundImageFix" stdDeviation="5"/>
<feComposite in2="SourceAlpha" operator="in" result="effect1_backgroundBlur_109_594"/>
<feBlend mode="normal" in="SourceGraphic" in2="effect1_backgroundBlur_109_594" result="shape"/>
<feColorMatrix in="SourceAlpha" type="matrix" values="0 0 0 0 0 0 0 0 0 0 0 0 0 0 0 0 0 0 127 0" result="hardAlpha"/>
<feOffset dy="10"/>
<feGaussianBlur stdDeviation="9"/>
<feComposite in2="hardAlpha" operator="arithmetic" k2="-1" k3="1"/>
<feColorMatrix type="matrix" values="0 0 0 0 0 0 0 0 0 0 0 0 0 0 0 0 0 0 0.05 0"/>
<feBlend mode="normal" in2="shape" result="effect2_innerShadow_109_594"/>
</filter>
<filter id="filter2_i_109_594" x="0" y="9" width="28.7795" height="31" filterUnits="userSpaceOnUse" color-interpolation-filters="sRGB">
<feFlood flood-opacity="0" result="BackgroundImageFix"/>
<feBlend mode="normal" in="SourceGraphic" in2="BackgroundImageFix" result="shape"/>
<feColorMatrix in="SourceAlpha" type="matrix" values="0 0 0 0 0 0 0 0 0 0 0 0 0 0 0 0 0 0 127 0" result="hardAlpha"/>
<feOffset dy="11"/>
<feGaussianBlur stdDeviation="5"/>
<feComposite in2="hardAlpha" operator="arithmetic" k2="-1" k3="1"/>
<feColorMatrix type="matrix" values="0 0 0 0 1 0 0 0 0 1 0 0 0 0 1 0 0 0 1 0"/>
<feBlend mode="normal" in2="shape" result="effect1_innerShadow_109_594"/>
</filter>
<linearGradient id="paint0_linear_109_594" x1="17.8172" y1="20.076" x2="29.5003" y2="3.40577" gradientUnits="userSpaceOnUse">
<stop stop-color="#FF9900"/>
<stop offset="1" stop-color="#FFC100"/>
</linearGradient>
<linearGradient id="paint1_linear_109_594" x1="1.83051" y1="28.125" x2="34.8712" y2="8.02342" gradientUnits="userSpaceOnUse">
<stop stop-color="#ABAAAA"/>
<stop offset="1" stop-color="#DEDEDE" stop-opacity="0.9"/>
<stop offset="1" stop-color="#DEDEDE" stop-opacity="0.7"/>
</linearGradient>
</defs>
</svg>
