<svg width="30" height="30" viewBox="0 0 30 30" fill="none" xmlns="http://www.w3.org/2000/svg">
<g filter="url(#filter0_i_239_795)">
<path d="M27.6909 6.62602C27.742 6.30843 27.7686 5.98173 27.7686 5.64828C27.7686 2.52882 25.4375 0 22.562 0C20.4243 0 18.5875 1.39759 17.7856 3.39646C17.136 2.78804 16.2931 2.42069 15.3719 2.42069C13.318 2.42069 11.6529 4.24706 11.6529 6.5C11.6529 6.62545 11.6581 6.74959 11.6682 6.87215C10.6802 7.39709 10 8.49858 10 9.77241C10 11.555 11.332 13 12.9752 13H27.0248C28.668 13 30 11.555 30 9.77241C30 8.23828 29.0133 6.95414 27.6909 6.62602Z" fill="url(#paint0_linear_239_795)"/>
</g>
<g filter="url(#filter1_i_239_795)">
<path d="M28.8454 18.5679C28.871 18.3968 28.8843 18.2209 28.8843 18.0414C28.8843 16.3617 27.7188 15 26.281 15C25.2121 15 24.2937 15.7526 23.8928 16.8289C23.568 16.5013 23.1465 16.3034 22.686 16.3034C21.659 16.3034 20.8264 17.2869 20.8264 18.5C20.8264 18.5676 20.829 18.6344 20.8341 18.7004C20.3401 18.9831 20 19.5762 20 20.2621C20 21.2219 20.666 22 21.4876 22H28.5124C29.334 22 30 21.2219 30 20.2621C30 19.436 29.5067 18.7445 28.8454 18.5679Z" fill="url(#paint1_linear_239_795)"/>
</g>
<path d="M18 13.5C18 18.1944 14.1944 22 9.5 22C4.80558 22 1 18.1944 1 13.5C1 8.80558 4.80558 5 9.5 5C14.1944 5 18 8.80558 18 13.5Z" fill="url(#paint2_linear_239_795)"/>
<g filter="url(#filter2_i_239_795)">
<path d="M18.5754 22.6454C18.6291 22.279 18.657 21.902 18.657 21.5172C18.657 17.9179 16.2094 15 13.1901 15C10.9455 15 9.01683 16.6126 8.17488 18.919C7.49279 18.217 6.60771 17.7931 5.6405 17.7931C3.48385 17.7931 1.73554 19.9005 1.73554 22.5C1.73554 22.6448 1.74096 22.788 1.75157 22.9294C0.71426 23.5351 3.04927e-07 24.806 3.04927e-07 26.2759C3.04927e-07 28.3326 1.39865 30 3.12397 30H17.876C19.6014 30 21 28.3326 21 26.2759C21 24.5057 19.964 23.024 18.5754 22.6454Z" fill="url(#paint3_linear_239_795)"/>
</g>
<g filter="url(#filter3_i_239_795)">
<path d="M12.3836 4.58725C12.4194 4.36738 12.438 4.1412 12.438 3.91034C12.438 1.75072 10.8063 0 8.79339 0C7.29699 0 6.01122 0.967565 5.44992 2.3514C4.9952 1.93018 4.40514 1.67586 3.76033 1.67586C2.32257 1.67586 1.15703 2.94027 1.15703 4.5C1.15703 4.58685 1.16064 4.67279 1.16771 4.75764C0.476174 5.12107 2.03285e-07 5.88363 2.03285e-07 6.76552C2.03285e-07 7.99959 0.932433 9 2.08265 9H11.9174C13.0676 9 14 7.99959 14 6.76552C14 5.70343 13.3093 4.8144 12.3836 4.58725Z" fill="url(#paint4_linear_239_795)"/>
</g>
<defs>
<filter id="filter0_i_239_795" x="10" y="0" width="20" height="23" filterUnits="userSpaceOnUse" color-interpolation-filters="sRGB">
<feFlood flood-opacity="0" result="BackgroundImageFix"/>
<feBlend mode="normal" in="SourceGraphic" in2="BackgroundImageFix" result="shape"/>
<feColorMatrix in="SourceAlpha" type="matrix" values="0 0 0 0 0 0 0 0 0 0 0 0 0 0 0 0 0 0 127 0" result="hardAlpha"/>
<feOffset dy="11"/>
<feGaussianBlur stdDeviation="5"/>
<feComposite in2="hardAlpha" operator="arithmetic" k2="-1" k3="1"/>
<feColorMatrix type="matrix" values="0 0 0 0 1 0 0 0 0 1 0 0 0 0 1 0 0 0 0.8 0"/>
<feBlend mode="normal" in2="shape" result="effect1_innerShadow_239_795"/>
</filter>
<filter id="filter1_i_239_795" x="20" y="15" width="10" height="17" filterUnits="userSpaceOnUse" color-interpolation-filters="sRGB">
<feFlood flood-opacity="0" result="BackgroundImageFix"/>
<feBlend mode="normal" in="SourceGraphic" in2="BackgroundImageFix" result="shape"/>
<feColorMatrix in="SourceAlpha" type="matrix" values="0 0 0 0 0 0 0 0 0 0 0 0 0 0 0 0 0 0 127 0" result="hardAlpha"/>
<feOffset dy="11"/>
<feGaussianBlur stdDeviation="5"/>
<feComposite in2="hardAlpha" operator="arithmetic" k2="-1" k3="1"/>
<feColorMatrix type="matrix" values="0 0 0 0 1 0 0 0 0 1 0 0 0 0 1 0 0 0 0.8 0"/>
<feBlend mode="normal" in2="shape" result="effect1_innerShadow_239_795"/>
</filter>
<filter id="filter2_i_239_795" x="0" y="15" width="21" height="25" filterUnits="userSpaceOnUse" color-interpolation-filters="sRGB">
<feFlood flood-opacity="0" result="BackgroundImageFix"/>
<feBlend mode="normal" in="SourceGraphic" in2="BackgroundImageFix" result="shape"/>
<feColorMatrix in="SourceAlpha" type="matrix" values="0 0 0 0 0 0 0 0 0 0 0 0 0 0 0 0 0 0 127 0" result="hardAlpha"/>
<feOffset dy="11"/>
<feGaussianBlur stdDeviation="5"/>
<feComposite in2="hardAlpha" operator="arithmetic" k2="-1" k3="1"/>
<feColorMatrix type="matrix" values="0 0 0 0 0.929167 0 0 0 0 0.929167 0 0 0 0 0.929167 0 0 0 0.9 0"/>
<feBlend mode="normal" in2="shape" result="effect1_innerShadow_239_795"/>
</filter>
<filter id="filter3_i_239_795" x="0" y="0" width="14" height="19" filterUnits="userSpaceOnUse" color-interpolation-filters="sRGB">
<feFlood flood-opacity="0" result="BackgroundImageFix"/>
<feBlend mode="normal" in="SourceGraphic" in2="BackgroundImageFix" result="shape"/>
<feColorMatrix in="SourceAlpha" type="matrix" values="0 0 0 0 0 0 0 0 0 0 0 0 0 0 0 0 0 0 127 0" result="hardAlpha"/>
<feOffset dy="11"/>
<feGaussianBlur stdDeviation="5"/>
<feComposite in2="hardAlpha" operator="arithmetic" k2="-1" k3="1"/>
<feColorMatrix type="matrix" values="0 0 0 0 0.929167 0 0 0 0 0.929167 0 0 0 0 0.929167 0 0 0 0.9 0"/>
<feBlend mode="normal" in2="shape" result="effect1_innerShadow_239_795"/>
</filter>
<linearGradient id="paint0_linear_239_795" x1="11.2721" y1="11.8393" x2="32.7252" y2="-2.81256" gradientUnits="userSpaceOnUse">
<stop stop-color="white"/>
<stop offset="1" stop-color="#DEDEDE" stop-opacity="0.7"/>
</linearGradient>
<linearGradient id="paint1_linear_239_795" x1="20.636" y1="21.375" x2="31.8542" y2="14.2606" gradientUnits="userSpaceOnUse">
<stop stop-color="white"/>
<stop offset="1" stop-color="#DEDEDE" stop-opacity="0.7"/>
</linearGradient>
<linearGradient id="paint2_linear_239_795" x1="8.20886" y1="18.1266" x2="15.2025" y2="5.86076" gradientUnits="userSpaceOnUse">
<stop stop-color="#FF9900"/>
<stop offset="1" stop-color="#FFEE94"/>
</linearGradient>
<linearGradient id="paint3_linear_239_795" x1="1.33569" y1="28.6607" x2="25.1644" y2="13.8511" gradientUnits="userSpaceOnUse">
<stop stop-color="white"/>
<stop offset="1" stop-color="#DEDEDE" stop-opacity="0.7"/>
</linearGradient>
<linearGradient id="paint4_linear_239_795" x1="0.890459" y1="8.19643" x2="15.8017" y2="-2.10063" gradientUnits="userSpaceOnUse">
<stop stop-color="white"/>
<stop offset="1" stop-color="#DEDEDE" stop-opacity="0.7"/>
</linearGradient>
</defs>
</svg>
