<svg width="38" height="27" viewBox="0 0 38 27" fill="none" xmlns="http://www.w3.org/2000/svg">
<g filter="url(#filter0_bi_232_763)">
<g filter="url(#filter1_i_232_763)">
<path d="M35.229 7.64541C35.2904 7.27896 35.3223 6.902 35.3223 6.51724C35.3223 2.91787 32.525 0 29.0744 0C26.5091 0 24.3049 1.61261 23.3427 3.91899C22.5632 3.21696 21.5517 2.7931 20.4463 2.7931C17.9815 2.7931 15.9835 4.90045 15.9835 7.5C15.9835 7.64475 15.9897 7.78798 16.0018 7.92941C14.8163 8.53511 14 9.80605 14 11.2759C14 13.3326 15.5985 15 17.5702 15H34.4298C36.4015 15 38 13.3326 38 11.2759C38 9.50571 36.816 8.02401 35.229 7.64541Z" fill="url(#paint0_linear_232_763)"/>
</g>
</g>
<g filter="url(#filter2_bi_232_763)">
<g filter="url(#filter3_i_232_763)">
<path d="M25.4569 16.7036C25.5304 16.1905 25.5687 15.6628 25.5687 15.1241C25.5687 10.085 22.2143 6 18.0765 6C15.0003 6 12.3572 8.25765 11.2033 11.4866C10.2686 10.5038 9.0556 9.91035 7.73008 9.91035C4.77447 9.91035 2.37848 12.8606 2.37848 16.5C2.37848 16.7027 2.38591 16.9032 2.40046 17.1012C0.978865 17.9492 0 19.7285 0 21.7862C0 24.6657 1.91679 27 4.28127 27H24.4984C26.8629 27 28.7797 24.6657 28.7797 21.7862C28.7797 19.308 27.3599 17.2336 25.4569 16.7036Z" fill="url(#paint1_linear_232_763)"/>
</g>
</g>
<defs>
<filter id="filter0_bi_232_763" x="4" y="-10" width="44" height="35" filterUnits="userSpaceOnUse" color-interpolation-filters="sRGB">
<feFlood flood-opacity="0" result="BackgroundImageFix"/>
<feGaussianBlur in="BackgroundImageFix" stdDeviation="5"/>
<feComposite in2="SourceAlpha" operator="in" result="effect1_backgroundBlur_232_763"/>
<feBlend mode="normal" in="SourceGraphic" in2="effect1_backgroundBlur_232_763" result="shape"/>
<feColorMatrix in="SourceAlpha" type="matrix" values="0 0 0 0 0 0 0 0 0 0 0 0 0 0 0 0 0 0 127 0" result="hardAlpha"/>
<feOffset dy="10"/>
<feGaussianBlur stdDeviation="9"/>
<feComposite in2="hardAlpha" operator="arithmetic" k2="-1" k3="1"/>
<feColorMatrix type="matrix" values="0 0 0 0 0 0 0 0 0 0 0 0 0 0 0 0 0 0 0.15 0"/>
<feBlend mode="normal" in2="shape" result="effect2_innerShadow_232_763"/>
</filter>
<filter id="filter1_i_232_763" x="14" y="0" width="24" height="25" filterUnits="userSpaceOnUse" color-interpolation-filters="sRGB">
<feFlood flood-opacity="0" result="BackgroundImageFix"/>
<feBlend mode="normal" in="SourceGraphic" in2="BackgroundImageFix" result="shape"/>
<feColorMatrix in="SourceAlpha" type="matrix" values="0 0 0 0 0 0 0 0 0 0 0 0 0 0 0 0 0 0 127 0" result="hardAlpha"/>
<feOffset dy="11"/>
<feGaussianBlur stdDeviation="5"/>
<feComposite in2="hardAlpha" operator="arithmetic" k2="-1" k3="1"/>
<feColorMatrix type="matrix" values="0 0 0 0 1 0 0 0 0 1 0 0 0 0 1 0 0 0 1 0"/>
<feBlend mode="normal" in2="shape" result="effect1_innerShadow_232_763"/>
</filter>
<filter id="filter2_bi_232_763" x="-10" y="-4" width="48.7795" height="41" filterUnits="userSpaceOnUse" color-interpolation-filters="sRGB">
<feFlood flood-opacity="0" result="BackgroundImageFix"/>
<feGaussianBlur in="BackgroundImageFix" stdDeviation="5"/>
<feComposite in2="SourceAlpha" operator="in" result="effect1_backgroundBlur_232_763"/>
<feBlend mode="normal" in="SourceGraphic" in2="effect1_backgroundBlur_232_763" result="shape"/>
<feColorMatrix in="SourceAlpha" type="matrix" values="0 0 0 0 0 0 0 0 0 0 0 0 0 0 0 0 0 0 127 0" result="hardAlpha"/>
<feOffset dy="10"/>
<feGaussianBlur stdDeviation="9"/>
<feComposite in2="hardAlpha" operator="arithmetic" k2="-1" k3="1"/>
<feColorMatrix type="matrix" values="0 0 0 0 0 0 0 0 0 0 0 0 0 0 0 0 0 0 0.1 0"/>
<feBlend mode="normal" in2="shape" result="effect2_innerShadow_232_763"/>
</filter>
<filter id="filter3_i_232_763" x="0" y="6" width="28.7795" height="31" filterUnits="userSpaceOnUse" color-interpolation-filters="sRGB">
<feFlood flood-opacity="0" result="BackgroundImageFix"/>
<feBlend mode="normal" in="SourceGraphic" in2="BackgroundImageFix" result="shape"/>
<feColorMatrix in="SourceAlpha" type="matrix" values="0 0 0 0 0 0 0 0 0 0 0 0 0 0 0 0 0 0 127 0" result="hardAlpha"/>
<feOffset dy="11"/>
<feGaussianBlur stdDeviation="5"/>
<feComposite in2="hardAlpha" operator="arithmetic" k2="-1" k3="1"/>
<feColorMatrix type="matrix" values="0 0 0 0 1 0 0 0 0 1 0 0 0 0 1 0 0 0 1 0"/>
<feBlend mode="normal" in2="shape" result="effect1_innerShadow_232_763"/>
</filter>
<linearGradient id="paint0_linear_232_763" x1="15.5265" y1="13.6607" x2="40.619" y2="-4.16219" gradientUnits="userSpaceOnUse">
<stop stop-color="#8E8E8E"/>
<stop offset="1" stop-color="#DEDEDE" stop-opacity="0.85"/>
</linearGradient>
<linearGradient id="paint1_linear_232_763" x1="1.83051" y1="25.125" x2="34.8712" y2="5.02342" gradientUnits="userSpaceOnUse">
<stop stop-color="#8E8E8E" stop-opacity="0.8"/>
<stop offset="1" stop-color="#DEDEDE" stop-opacity="0.9"/>
</linearGradient>
</defs>
</svg>
